<?xml version="1.0" encoding="UTF-8" standalone="no"?>
<svg
   width="1108.275"
   height="1717.2222"
   viewBox="0 0 85.450664 132.40195"
   version="1.1"
   id="svg28"
   sodipodi:docname="asterix.svg"
   inkscape:version="1.4 (e7c3feb100, 2024-10-09)"
   xmlns:inkscape="http://www.inkscape.org/namespaces/inkscape"
   xmlns:sodipodi="http://sodipodi.sourceforge.net/DTD/sodipodi-0.dtd"
   xmlns="http://www.w3.org/2000/svg"
   xmlns:svg="http://www.w3.org/2000/svg">
  <defs
     id="defs28" />
  <sodipodi:namedview
     id="namedview28"
     pagecolor="#505050"
     bordercolor="#eeeeee"
     borderopacity="1"
     inkscape:showpageshadow="0"
     inkscape:pageopacity="0"
     inkscape:pagecheckerboard="0"
     inkscape:deskcolor="#d1d1d1"
     inkscape:zoom="0.32"
     inkscape:cx="914.0625"
     inkscape:cy="1140.625"
     inkscape:window-width="1920"
     inkscape:window-height="1008"
     inkscape:window-x="0"
     inkscape:window-y="0"
     inkscape:window-maximized="1"
     inkscape:current-layer="g29" />
  <g
     fill-rule="evenodd"
     clip-rule="evenodd"
     id="g28"
     transform="translate(-25.87885,-8.5039184)">
    <path
       fill="#ffffff"
       fill-opacity="0"
       d="M 0,0 H 192.756 V 192.756 H 0 Z"
       id="path1" />
    <g
       id="g30">
      <path
         d="m 68.337,9.327 c 0.504,29.828 10.051,29.5 9.976,44.439 -0.025,6.928 -2.494,10.379 -3.905,12.369 0.907,0.277 1.99,0.882 2.872,1.562 0.252,-3.855 2.494,-7.104 5.568,-8.943 0.655,-0.302 1.411,0.554 0.755,1.234 -4.182,1.285 -5.668,5.391 -5.693,8.515 1.587,-1.915 6.349,-5.668 9.624,-5.039 0.907,0.353 1.083,1.335 0.05,1.209 -3.502,-0.629 -7.381,2.066 -8.817,3.98 0.151,0.126 0.58,1.083 1.159,-0.202 0.302,1.486 1.31,-0.932 2.847,-0.05 1.764,1.083 1.663,5.366 1.083,7.709 0.856,0.529 2.216,0.68 3.25,0.932 3.174,-10.152 11.917,-12.571 20.053,-3.653 5.189,7.154 5.719,14.838 0.555,23.328 2.492,4.761 0.68,10.127 -5.09,13.528 -0.051,-0.076 -0.176,-0.303 -0.201,-0.328 -1.234,1.335 -2.645,2.394 -4.156,3.3 0.402,-1.587 0.906,-2.519 1.283,-3.35 -1.461,1.788 -2.795,3.274 -4.861,4.459 -1.209,2.191 -3.048,5.164 -5.517,6.474 3.073,5.567 6.424,11.689 10.378,16.198 v 0.681 l -30.254,-0.025 c -1.486,-0.05 -16.501,7.961 -21.716,-0.982 -1.007,-7.18 3.704,-10.505 9.599,-14.737 5.87,-4.257 7.457,-11.361 14.359,-11.235 0.025,-0.429 0.05,-1.008 0.076,-1.134 -1.234,-0.025 -1.612,-0.176 -2.67,-0.831 -1.94,4.232 -9.195,3.048 -14.058,0.227 1.059,1.562 1.663,2.443 4.056,4.308 -9.699,-3.022 -12.419,-7.23 -10.984,-12.621 -1.033,1.209 -1.31,1.184 -1.965,6.298 -2.469,-8.591 -1.234,-13.805 5.92,-14.863 -1.209,-0.503 -2.897,-0.176 -4.408,0.378 0.503,-2.117 2.947,-3.678 8.363,-3.2 -1.965,-2.771 -2.771,-5.996 -2.695,-9.749 -3.754,2.015 -7.028,-0.126 -6.374,-4.434 -2.292,-1.511 -3.477,-4.005 -3.426,-7.784 -6.323,-3.879 -8.414,-7.432 -6.096,-11.135 -2.998,-3.048 -5.467,-5.517 -4.006,-9.472 1.109,-2.292 2.495,-1.36 3.779,-0.554 -3.401,-3.98 -7.381,-9.17 -5.769,-13.15 1.26,-2.897 3.376,0.73 4.913,1.662 C 24.075,20.789 23.269,6.682 30.474,8.697 c 6.096,18.44 15.065,27.308 23.882,38.115 7.86,9.623 5.416,16.072 4.509,22.093 2.645,-2.418 5.845,-3.401 9.699,-3.552 C 66.498,63.64 66.17,61.398 67.355,60.038 63.273,55.126 63.375,52.455 65.818,51.246 61.687,46.51 61.913,42.227 64.18,41.094 60.25,30.538 61.283,25.727 64.609,26.886 61.963,16.28 64.306,8.143 68.337,9.327 Z"
         id="path2" />
      <path
         d="m 90.632,102.386 c 0.227,-0.201 0.428,-0.453 0.655,-0.68 0.454,0.101 0.933,0.176 1.386,0.276 -0.379,1.386 -1.336,1.26 -2.041,0.404 z m -18.844,9.044 c 0.454,1.461 0.958,3.048 2.091,4.812 0.277,3.376 -1.586,5.618 -2.569,7.91 -2.495,-0.176 -5.014,0.051 -7.407,0.453 -1.159,-0.251 -2.317,-0.15 -3.476,0.076 -0.302,0.151 -0.252,0.353 0.025,0.403 0.807,-0.126 1.638,-0.101 2.444,-0.076 -1.889,0.403 -3.577,0.958 -5.265,1.612 -0.453,0.403 0.025,0.479 0.302,0.353 4.938,-1.864 10.505,-2.973 19.247,-1.485 4.661,1.209 7.583,6.247 9.498,11.462 h -11.16 c -0.151,-0.856 -0.302,-1.688 -0.454,-2.545 0.176,-0.403 0.504,-0.428 0.982,-0.05 1.537,0.453 2.419,0.126 2.696,-0.982 -1.007,0.529 -1.99,0.756 -2.696,0.327 0.378,-0.277 0.681,-0.579 1.059,-0.856 0.353,-0.453 0.227,-0.705 -0.353,-0.428 -8.616,5.844 -18.944,8.767 -24.814,6.776 v -0.756 c 0.882,0.151 1.587,0.051 2.066,-0.429 0.125,-0.101 0,-0.604 -0.529,-0.176 -0.302,0.252 -0.831,0.302 -1.537,0.176 v -1.914 c 0.907,0.882 2.041,1.335 3.325,1.562 0.328,0 0.479,-0.327 0.025,-0.378 -1.31,-0.15 -2.394,-0.756 -3.225,-1.688 -0.05,-0.025 -0.076,-0.051 -0.126,-0.051 v -8.414 c 2.268,-2.242 5.265,-4.005 8.188,-6.751 6.045,-6.928 8.288,-9.321 11.663,-8.943 z m -19.851,27.761 c -1.587,-0.555 -2.847,-1.462 -3.653,-2.771 -0.025,-4.459 1.461,-7.104 3.653,-9.296 v 8.414 c -0.277,-0.126 -0.353,0.076 -0.176,0.378 0.05,0.075 0.125,0.126 0.176,0.177 v 1.914 c -0.529,-0.101 -1.159,-0.302 -1.89,-0.579 -0.252,-0.126 -0.302,0 0,0.403 0.706,0.302 1.335,0.504 1.89,0.604 z"
         fill="#e5a773"
         id="path9"
         style="fill:#ffffff;fill-opacity:1" />
      <path
         d="m 89.271,74.246 c 1.612,-3.174 3.905,-5.668 7.608,-5.492 7.179,0.731 12.294,7.255 13.025,14.435 v 3.527 c -0.529,5.088 -3.402,10.051 -9.373,13.125 -0.654,-0.051 -1.283,-0.102 -1.939,-0.151 0,0.227 0.303,0.453 0.631,0.705 -0.555,0.453 -1.436,0.277 -2.343,0.051 -0.051,0.176 -0.025,0.479 -0.075,0.654 a 7.773,7.773 0 0 1 -1.638,-0.504 v 0.605 c -0.705,-0.127 -1.209,-0.429 -1.738,-0.756 v 0.554 c -0.832,0.025 -1.587,-0.403 -2.394,-1.158 0.051,0.251 0.076,0.503 0.076,0.755 a 7.285,7.285 0 0 1 -1.839,-0.453 v -16.4 c 0.302,-1.285 0.63,-2.544 1.008,-3.703 0.075,-0.377 -0.227,-0.454 -0.454,-0.151 a 37.962,37.962 0 0 0 -0.554,1.839 v -7.482 z m -0.957,2.142 c 0.303,-0.73 0.605,-1.461 0.958,-2.142 v 7.482 a 46.408,46.408 0 0 0 -0.958,4.282 v -2.242 c 0.025,-0.101 0.051,-0.176 0.076,-0.277 L 88.314,83.34 Z m 0.957,23.756 v -16.4 a 73.978,73.978 0 0 0 -0.58,2.721 c -0.05,0.201 -0.252,0.353 -0.378,0.227 V 99.74 c 0.304,0.152 0.631,0.303 0.958,0.404 z m -1.712,-21.64 c 0.227,-0.706 0.479,-1.411 0.755,-2.116 v 6.953 c -0.101,-0.126 -0.201,-0.126 -0.302,0.025 -0.176,0.63 -0.328,1.284 -0.453,1.939 z M 88.314,99.74 V 86.691 c -0.05,-0.051 -0.075,-0.151 -0.075,-0.277 0.025,-0.126 0.05,-0.277 0.075,-0.403 v -2.242 c -0.277,1.159 -0.554,2.318 -0.755,3.552 v 11.966 c 0.251,0.151 0.503,0.303 0.755,0.453 z M 84.51,86.162 c 1.108,-0.756 1.839,-4.106 3.048,-7.658 v 6.802 a 40.54,40.54 0 0 0 -0.857,5.038 c -0.025,0.303 0.378,0.328 0.429,0.025 0.101,-1.058 0.227,-2.065 0.428,-3.048 v 11.966 a 13.766,13.766 0 0 1 -2.167,-1.713 c 0.403,-2.771 -0.504,-4.761 -2.872,-6.55 -0.025,0 -0.025,0.025 -0.05,0.025 v -0.051 c 0,-0.025 -0.025,-0.025 -0.025,-0.025 0,-0.05 0,-0.075 0.025,-0.101 C 81.99,84.524 78.01,78.049 74.635,76.034 V 72.76 c 1.259,-0.202 1.41,-1.058 0.075,-2.872 0.353,-0.051 0.706,-0.101 1.058,-0.177 0.63,0.227 1.285,0.504 1.915,0.479 0.604,-0.076 0.681,-0.277 0.328,-0.529 -0.378,-0.277 -0.353,-0.403 0.05,-0.428 0.227,0.176 0.454,0.327 0.706,0.479 0.277,0.328 0.428,0.201 0.479,-0.353 a 2.22,2.22 0 0 1 0.403,-0.05 c -0.025,0.73 -0.05,1.486 -0.101,2.216 -0.176,1.109 0.076,1.512 0.856,1.008 2.116,-1.662 2.695,1.059 3.023,4.585 0.73,1.31 1.612,2.394 2.821,3.351 -0.101,0.504 -0.302,1.386 -0.479,1.915 -0.126,0.252 -0.252,0.227 -0.378,-0.025 -1.184,-3.451 -3.3,-7.281 -5.139,-6.449 -0.151,-0.655 -0.176,-1.184 -0.202,-1.663 -0.151,-0.276 -0.403,-0.176 -0.454,0.151 0.38,4.736 2.168,8.414 4.914,11.764 z m -9.875,0.277 v 1.813 c 0.604,0.202 1.259,0.605 2.04,1.185 -0.101,-0.025 -0.201,0.05 -0.277,0 -0.63,-0.252 -1.184,-0.529 -1.763,-0.706 v 7.91 a 4.827,4.827 0 0 1 1.284,-0.453 c 0.882,0.051 1.486,0.856 0.907,1.083 -0.554,0.151 -1.083,0.277 -1.638,0.403 -0.302,0.303 -0.151,0.63 0.076,0.957 0.428,0.479 0.958,0.982 1.612,1.311 -0.075,-0.403 0,-0.58 0.227,-0.529 0.302,0.579 0.73,0.832 1.26,0.807 -0.076,-0.328 -0.025,-0.504 0.125,-0.529 0.353,0.504 0.781,0.806 1.285,0.705 0.025,-0.176 0.051,-0.353 0.101,-0.529 0.202,-0.126 0.454,0.126 0.755,0.454 3.88,-0.604 5.441,-3.829 3.225,-7.104 -2.268,-3.073 -5.139,-3.351 -8.238,-2.746 A 0.412,0.412 0 0 0 75.439,90.37 c 0.378,-0.453 0.933,-0.63 1.94,-0.504 0.176,-0.05 0.227,-0.252 -0.05,-0.453 -0.931,-0.731 -1.837,-1.765 -2.694,-2.974 z m 0,12.445 v 2.545 c 0.327,-0.429 0.68,-0.856 1.058,-1.26 a 4.384,4.384 0 0 1 -1.058,-1.285 z m 0,-22.849 c -0.907,-0.529 -1.764,-0.756 -2.52,-0.554 -2.368,1.058 -0.378,6.903 2.52,10.958 v 1.813 C 73.98,88 73.426,87.975 72.947,88.076 c -0.428,0.201 -0.479,0.63 -0.025,0.529 0.58,-0.151 1.134,-0.05 1.713,0.126 v 7.91 c -1.562,0.907 -2.167,2.797 -2.721,4.687 0.907,-1.311 1.89,-2.848 2.494,-2.897 l 0.227,0.453 v 2.545 c -1.436,1.939 -2.293,4.156 -2.721,6.575 -2.594,-0.479 -3.703,-1.713 -4.383,-5.77 -0.05,-0.327 0,-0.68 -0.126,-1.032 a 1.09,1.09 0 0 0 -0.403,0 2.562,2.562 0 0 1 -0.402,1.234 v -6.197 c 0.201,0.201 0.377,0.453 0.579,0.73 0.277,0.227 0.554,0.05 0.353,-0.303 A 9.287,9.287 0 0 0 66.6,95.633 V 95.13 c 0.402,0.353 0.781,0.73 1.184,1.108 v -0.075 c 0.177,-0.882 0.328,-1.512 -0.328,-2.394 0.151,-0.051 0.227,-0.177 0.227,-0.353 1.108,1.411 1.31,3.074 1.663,5.114 1.007,-1.89 1.184,-4.131 0.403,-6.676 0.806,0.68 1.411,1.411 2.469,3.527 0.302,-0.151 0.353,-0.479 -0.025,-1.386 -0.328,-3.854 -2.343,-6.475 -5.291,-8.364 0.932,-0.075 2.796,0.807 4.787,1.789 a 0.532,0.532 0 0 0 0.151,-0.101 c -0.554,-0.756 -1.058,-1.234 -1.965,-1.738 -1.184,-1.134 -2.267,-2.066 -3.274,-2.822 v -4.661 c 0.075,0.025 0.151,0.076 0.201,0.101 a 1.106,1.106 0 0 0 -0.201,-0.277 v -1.839 c 0.73,1.688 1.536,3.376 2.544,5.013 0.428,0.655 0.907,0.555 0.58,-0.151 -1.612,-3.879 -4.509,-8.666 2.948,-8.187 0.806,0.076 1.461,0.101 1.965,0 v 3.277 z m -8.036,17.76 v 0.856 c 0.251,0.227 0.503,0.454 0.73,0.68 0.253,-0.377 -0.05,-0.931 -0.73,-1.536 z m 0,8.642 c -0.126,0.227 -0.328,0.428 -0.555,0.654 v -4.56 c 0.101,0.126 0.202,0.227 0.277,0.328 0.151,0.176 0.302,0 -0.051,-0.479 a 1.17,1.17 0 0 0 -0.227,-0.302 v -2.394 c 0.202,0.151 0.378,0.327 0.555,0.555 v 6.198 z m -0.555,-9.07 c 0.227,0.126 0.403,0.277 0.555,0.428 v 0.856 c -0.177,-0.176 -0.353,-0.353 -0.555,-0.529 z m 0,1.259 v 0.504 c 0.202,0.151 0.378,0.302 0.555,0.503 V 95.13 c -0.177,-0.176 -0.353,-0.352 -0.555,-0.504 z m 0.555,-11.865 c -0.177,-0.125 -0.353,-0.277 -0.555,-0.403 v -4.61 c 0.202,0.126 0.378,0.252 0.555,0.353 z m 0,-4.836 v -1.839 c -0.177,-0.479 -0.378,-0.932 -0.555,-1.385 v 2.418 c 0.177,0.251 0.353,0.528 0.555,0.806 z m -0.555,25.166 c -0.68,0.63 -1.789,1.185 -3.275,1.638 a 7.526,7.526 0 0 1 -1.285,0.202 v -2.268 c 0.504,0.15 1.007,0.126 1.486,0 0.529,-0.202 0.227,-0.604 -0.076,-0.504 -0.454,0.126 -0.907,0.176 -1.411,0 V 99.74 c 0.806,0.983 2.065,1.437 3.023,0.933 0.353,-0.453 0.227,-0.882 -0.126,-0.756 -1.008,0.428 -2.242,-0.025 -2.897,-1.108 v -0.655 c 0.277,-0.529 0.403,-1.688 0.806,-1.612 1.461,0.252 2.948,1.108 3.754,1.99 v 4.559 z M 61.485,91.402 v 4.257 c 1.889,0.377 3.577,1.184 4.56,2.418 v -2.394 c -0.101,-0.101 -0.227,-0.201 -0.327,-0.302 -0.177,-0.328 -0.101,-0.454 0.176,-0.378 0.051,0.05 0.101,0.075 0.151,0.126 V 94.625 C 65.869,94.449 65.692,94.272 65.491,94.122 65.214,93.82 65.415,93.643 65.793,93.87 l 0.252,0.252 v -0.756 c -1.084,-0.805 -2.747,-1.561 -4.56,-1.964 z m 4.559,-9.044 c -1.864,-1.31 -3.325,-1.89 -4.459,-1.764 0.604,-1.511 1.612,-3.325 2.922,-4.787 0.479,0.832 0.982,1.487 1.537,1.94 z m 0,-5.24 v -2.443 c -0.327,0.151 -0.63,0.302 -0.957,0.479 0.126,0.503 0.479,1.209 0.957,1.964 z m -4.559,27.813 c -0.479,0.05 -0.933,0.075 -1.36,0.05 v -2.394 c 0.453,0.126 0.554,-0.075 0.252,-0.201 a 2.295,2.295 0 0 1 -0.252,-0.151 v -0.353 c 0.453,0.378 0.907,0.63 1.36,0.781 z m -1.36,-13.756 c 0.453,0.05 0.907,0.126 1.36,0.227 v 4.257 c -0.454,-0.101 -0.907,-0.151 -1.36,-0.202 z m 1.36,6.978 v 0.655 c -0.101,-0.126 -0.151,-0.252 -0.227,-0.403 0.075,-0.025 0.151,-0.126 0.227,-0.252 z m 0,1.587 a 3.584,3.584 0 0 1 -0.63,-1.083 c -0.277,-0.025 -0.529,-0.075 -0.73,-0.177 v 2.923 c 0.025,0.025 0.075,0.051 0.101,0.075 0.479,0.353 0.882,0.58 1.26,0.681 V 99.74 Z m -1.36,5.24 c -0.202,0 -0.403,-0.025 -0.604,-0.05 v -2.671 c 0.151,0.101 0.302,0.201 0.479,0.277 0.05,0.025 0.076,0.025 0.126,0.05 v 2.394 z M 59.52,91.125 c 0.201,0 0.403,0.025 0.604,0.05 v 4.283 c -0.202,-0.025 -0.403,-0.025 -0.604,-0.05 z m 0.605,7.355 v 2.923 c -0.428,-0.277 -0.604,-0.101 -0.202,0.303 0.076,0.05 0.126,0.101 0.202,0.176 v 0.353 a 316.68,316.68 0 0 1 -0.604,-0.453 v -3.703 c 0.15,0.176 0.352,0.301 0.604,0.401 z m -0.605,6.451 a 7.25,7.25 0 0 1 -1.461,-0.277 v -2.872 c 0.025,0.025 0.05,0.025 0.05,0.05 0.479,0.151 0.504,0.051 0.227,-0.201 -0.101,-0.075 -0.176,-0.151 -0.277,-0.227 v -0.453 c 0.454,0.504 0.932,0.932 1.461,1.31 z M 58.059,91.15 c 0.202,-0.025 0.403,-0.025 0.605,-0.051 0.302,0 0.579,0 0.856,0.025 v 4.283 c -0.479,0 -0.982,0 -1.461,0.025 z m 1.461,6.928 c -0.429,-0.529 -0.529,-1.26 -0.252,-1.939 -0.429,0 -0.832,0.025 -1.209,0.05 v 4.057 c 0.378,0.579 0.882,1.083 1.461,1.536 z m -1.461,6.575 a 5.518,5.518 0 0 1 -0.907,-0.303 v -3.25 c 0.252,0.228 0.554,0.479 0.907,0.681 z M 57.152,91.327 c 0.277,-0.076 0.604,-0.126 0.907,-0.176 v 4.282 c -0.302,0.025 -0.604,0.051 -0.907,0.101 z m 0.907,4.861 c -0.328,0.025 -0.63,0.051 -0.907,0.075 v 4.207 c 0.227,0.328 0.529,0.63 0.907,0.933 v -0.453 c -0.126,-0.151 -0.252,-0.303 -0.403,-0.479 -0.177,-0.353 0.227,-0.479 0.403,-0.226 z m -0.907,8.163 c -1.738,-0.68 -3.199,-1.864 -4.308,-3.25 -2.419,-3.904 -0.378,-8.69 4.308,-9.774 v 4.207 c -1.789,0.252 -3.376,0.881 -4.384,1.889 -0.806,1.058 0.756,1.99 1.411,0.705 0.327,-1.008 0.982,-1.612 2.973,-1.864 v 4.207 c -0.832,-1.007 -0.982,-2.04 -0.68,-3.174 0.101,-0.479 -0.403,-0.378 -0.479,-0.075 -0.504,1.461 -0.151,2.746 1.159,3.879 z"
         fill="#e5a773"
         id="path13"
         style="fill:#ffffff;fill-opacity:1" />
      <g
         id="g29">
        <path
           d="m 97.357,102.008 c 3.1,-0.227 6.098,-1.411 8.969,-3.703 1.713,4.509 -0.15,7.986 -3.754,10.857 0.076,-0.756 0.025,-1.234 -0.051,-1.839 -0.654,1.612 -1.637,3.023 -2.922,4.258 1.614,-2.947 0.657,-6.147 -2.242,-9.573 z M 85.216,98.531 c 1.738,1.386 3.527,2.217 5.567,2.973 -6.978,6.021 -10.656,12.294 -9.925,18.869 -1.386,-1.36 -2.268,-3.099 -2.948,-5.038 l 0.151,2.771 c -6.273,-3.93 -6.273,-10.228 -2.041,-17.509 2.57,1.159 6.298,1.436 9.196,-2.066 z m -16.803,9.548 c -0.982,-1.537 -1.26,-3.174 -1.234,-4.862 -4.182,5.567 -13.831,2.116 -15.518,-2.721 -1.335,-3.829 0.655,-9.623 6.171,-9.976 -3.4,-1.159 -6.928,-0.378 -9.447,1.083 1.663,-0.327 3.426,-0.428 4.56,0.378 -6.349,2.368 -7.86,4.988 -7.18,10.329 0.655,-1.108 1.436,-2.116 2.796,-2.268 -0.982,4.358 0.907,8.288 7.658,11.639 -1.864,-1.939 -3.552,-3.729 -3.476,-5.719 3.124,4.56 14.183,5.896 15.67,2.117 z M 59.52,90.294 c -0.403,-2.923 0.025,-6.122 2.065,-9.321 1.814,0.327 4.358,2.091 7.381,4.384 -1.209,-0.252 -2.368,-0.454 -3.477,-0.303 2.948,2.494 5.593,5.014 6.096,7.785 -1.486,-1.739 -2.544,-2.57 -3.199,-2.495 1.033,2.57 1.461,4.636 1.184,5.996 -0.604,-1.612 -1.209,-3.199 -1.839,-3.577 -0.252,0.076 -0.378,0.277 -0.328,0.756 -2.618,-2.772 -5.263,-3.276 -7.883,-3.225 z"
           fill="#f2ca30"
           id="path3"
           style="fill:#ffffff;fill-opacity:1" />
        <path
           d="m 92.748,136.772 c 1.763,0 3.527,0.025 5.266,0.025 a 124.676,124.676 0 0 1 -5.266,-7.81 v 0.958 c 0.328,0.554 0.655,1.107 1.007,1.662 0.025,0.504 -0.353,0.151 -1.007,-0.73 v 0.73 c 0.328,0.504 0.655,0.982 1.007,1.461 -0.201,0.201 -0.554,0 -1.007,-0.479 v 0.933 c 0.377,0.353 0.706,0.554 1.007,0.554 A 1.992,1.992 0 0 1 92.748,133.9 v 0.453 c 0.629,0.201 1.259,0.453 1.864,0.73 l -0.151,0.302 c -0.555,-0.251 -1.134,-0.528 -1.713,-0.755 z m -1.663,0 h 1.663 v -2.141 c -0.58,-0.202 -1.159,-0.403 -1.764,-0.479 -0.025,-0.152 -0.075,-0.127 -0.101,-0.277 a 9.65,9.65 0 0 1 1.864,0.479 v -0.453 c -1.36,-0.555 -2.67,-2.469 -3.93,-5.215 1.487,3.678 1.513,5.366 2.268,8.086 z m 1.663,-7.784 v 0.958 c -1.738,-2.872 -3.451,-5.77 -5.189,-8.667 0.227,0 0.479,-0.024 0.705,-0.05 a 174.13,174.13 0 0 0 4.484,7.759 z m 0,1.89 v 0.73 c -2.267,-3.351 -4.333,-6.827 -6.348,-10.329 0.176,0.051 0.378,0.076 0.554,0.102 2.267,3.854 4.535,7.733 5.794,9.497 z m 0,1.713 v 0.933 c -1.94,-1.789 -4.963,-7.709 -7.608,-12.193 0.151,0 0.302,-0.025 0.453,-0.051 2.57,4.232 5.543,9.598 7.155,11.311 z M 81.286,117.678 c -0.201,0.856 -0.101,1.813 0.075,2.796 -0.151,0.051 -0.276,0.151 -0.503,0.126 0.428,0.479 0.881,0.781 1.033,1.108 -1.385,-0.479 -2.116,-1.537 -2.922,-2.394 -1.713,-0.504 -3.174,-1.411 -4.459,-2.62 1.36,3.653 3.653,7.533 7.306,5.82 1.535,-1.033 1.183,-3.174 -0.53,-4.836 z"
           fill="#e5a773"
           id="path4"
           style="fill:#ffffff;fill-opacity:1" />
        <path
           d="m 86.349,107.449 c 2.292,1.108 3.955,2.797 3.023,4.786 -1.285,1.386 -3.224,0.429 -5.366,-1.184 0.604,-0.982 1.108,-2.217 1.738,-2.721 0.353,-0.403 1.234,1.26 1.764,1.99 -0.252,-0.906 -1.738,-2.997 -1.159,-2.871 z"
           fill="#cc2229"
           id="path5"
           style="fill:#ffffff;fill-opacity:1" />
        <path
           d="m 77.179,68.629 c -6.978,-3.2 -13.226,-3.023 -18.642,1.411 -0.504,1.234 -1.083,2.317 -1.587,3.552 2.796,-0.101 2.948,7.859 0.629,8.817 -2.317,0.982 -2.846,-2.922 -2.922,-6.122 h 0.05 a 5.272,5.272 0 0 0 -0.403,0.353 15.513,15.513 0 0 0 0.252,5.366 c 0.63,3.022 2.091,5.97 4.434,7.96 -0.882,-3.3 0.454,-9.346 5.492,-14.737 l -0.075,-1.486 c 0.176,-0.025 0.353,-0.05 0.554,-0.05 l 0.075,1.31 c 0.378,-0.126 0.731,-0.277 1.083,-0.403 -1.511,-5.063 1.159,-6.197 5.744,-5.467 1.26,0.353 1.31,-0.151 0.126,-1.486 0.856,0.075 1.738,0.831 2.695,2.267 0.353,-0.075 0.731,-0.125 1.083,-0.176 0,-0.176 -0.025,-0.353 -0.025,-0.503 0.453,0.201 0.907,0.378 1.486,0.353 -0.023,-0.304 -0.023,-0.632 -0.049,-0.959 z"
           fill="#bbbcbf"
           id="path6"
           style="fill:#ffffff;fill-opacity:1" />
        <path
           d="m 84.132,76.967 c 0.756,0.277 1.713,0.604 2.519,1.083 -0.075,0.554 -0.202,1.209 -0.302,1.738 -1.058,-0.906 -2.091,-1.838 -2.217,-2.821 z"
           fill="#f2ca30"
           id="path7"
           style="fill:#ffffff;fill-opacity:1" />
        <path
           d="m 83.729,111.656 c -1.083,1.638 -1.965,3.729 -2.091,5.089 2.443,2.695 5.14,3.88 8.087,2.041 2.821,-2.142 4.232,-5.064 4.459,-8.289 h 0.453 c 0.126,0.933 0.101,1.84 -0.126,2.771 1.663,-1.335 3.073,-2.973 4.383,-4.786 0.957,-1.612 -0.906,-4.081 -2.594,-6.298 -1.083,-0.076 -2.091,-0.102 -3.175,-0.177 -0.226,0.907 -0.831,1.36 -1.612,1.562 -1.058,0.579 -1.134,2.695 -1.36,4.609 -0.076,1.537 0.428,3.603 -0.202,4.56 1.285,-0.252 2.52,-0.654 3.351,-2.217 h 0.428 c -1.083,3.655 -6.952,4.586 -10.001,1.135 z"
           fill="#e5a773"
           id="path8"
           style="fill:#ffffff;fill-opacity:1" />
        <path
           d="m 85.316,83.996 c 0.377,-1.437 -3.25,-8.138 -4.736,-7.684 -0.479,0.302 0.353,2.645 1.663,5.567 1.36,-0.881 2.923,2.57 3.073,2.117 z"
           fill="#ffffff"
           id="path10" />
        <path
           d="m 82.822,82.61 c 0,-0.353 0.302,-0.378 0.655,-0.051 0.353,0.328 0.629,0.882 0.629,1.235 -0.025,0.353 -0.302,0.377 -0.655,0.05 -0.352,-0.327 -0.629,-0.881 -0.629,-1.234 z m -8.212,0.882 c 0.025,-0.554 0.629,-0.579 1.335,-0.075 0.73,0.503 1.31,1.36 1.285,1.915 0,0.554 -0.604,0.579 -1.335,0.075 -0.706,-0.505 -1.285,-1.361 -1.285,-1.915 z"
           fill="#ffffff"
           id="path11" />
        <path
           d="m 73.602,83.92 c -1.839,-4.056 -2.771,-7.229 -1.159,-8.011 2.217,-0.982 9.195,7.104 9.547,14.863 -0.705,-0.479 -1.385,-0.806 -2.065,-0.856 -0.554,-6.298 -5.593,-9.522 -5.87,-5.996 -0.1,0.303 -0.277,0.303 -0.453,0 z"
           fill="#ffffff"
           id="path12" />
        <path
           d="m 74.484,64.85 c 1.713,-3.199 2.569,-6.751 2.67,-10.605 v -1.587 a 40.133,40.133 0 0 0 -0.781,-6.499 c -0.504,-1.461 -1.159,-3.048 -1.89,-4.787 v 6.222 c 0.428,1.411 0.68,3.351 0.882,6.575 0.126,0.706 -0.076,0.907 -0.454,0.554 a 58.957,58.957 0 0 1 -0.277,4.762 c -0.051,0.101 -0.101,0.201 -0.151,0.276 v 5.089 z m 0,-12.496 v -2.343 c 0.126,0.781 0.176,1.562 0.227,2.368 C 74.61,52.33 74.534,52.33 74.484,52.354 Z m -4.686,13.125 c 1.133,0.025 2.267,0.151 3.955,0.63 a 19.9,19.9 0 0 0 0.73,-1.26 V 59.76 c -0.227,0.353 -0.428,0.151 -0.277,-0.579 0.151,-1.99 0.328,-3.955 0.177,-5.996 -0.025,-0.378 -0.025,-0.731 0.101,-0.832 V 50.01 c -0.177,-1.108 -0.454,-2.167 -0.882,-3.149 -0.101,-0.302 0.151,-0.554 0.554,-0.126 0.126,0.252 0.227,0.554 0.328,0.856 V 41.369 C 71.108,33.484 66.095,22.777 67.631,9.904 c -5.416,1.159 -4.056,16.551 3.351,33.455 0.328,0.529 -0.378,0.302 -0.503,0.025 -1.814,-5.114 -3.704,-10.253 -5.542,-15.367 -1.184,-1.134 -1.889,-0.529 -2.167,1.813 0.151,7.961 2.948,12.999 6.096,16.627 0.403,-0.68 0.832,-1.184 1.537,-1.184 0.428,0.05 1.083,0.327 1.939,0.882 0.076,0.125 0.126,0.277 0.202,0.403 0.101,0.328 -0.251,0.378 -0.403,0.176 -4.056,-3.653 -4.056,4.862 0.277,10.606 0.328,0.479 0.176,0.705 0,0.604 -0.428,-0.479 -0.781,-0.958 -1.058,-1.512 -2.821,1.209 -1.738,3.754 0.706,6.903 0.302,0.302 -0.025,0.63 -0.353,0.353 a 10.115,10.115 0 0 0 -0.806,-0.907 c -0.781,-1.209 -1.587,-2.394 -1.89,-3.854 0,-1.512 0.479,-2.721 1.99,-2.897 -1.99,-2.595 -2.998,-6.298 -2.418,-9.17 -1.663,-1.335 -2.821,-3.275 -3.955,-5.214 -1.033,1.41 -1.385,3.4 1.764,9.598 0.831,1.486 2.041,2.771 3.501,4.081 0.403,0.378 0.252,0.63 -0.227,0.429 -1.89,-1.059 -3.099,-3.905 -3.527,-3.729 -1.007,0.479 -1.536,3.325 1.537,7.205 0.604,0.655 1.209,1.285 1.789,1.94 -0.025,0.101 -0.076,0.202 -0.101,0.302 -0.453,-0.353 -0.907,-0.68 -1.36,-1.134 -0.53,1.69 0.201,3.479 1.788,5.141 z M 56.597,79.108 c 0.277,0 0.504,-0.579 0.504,-1.31 0,-0.73 -0.227,-1.335 -0.504,-1.335 -0.302,0 -0.529,0.604 -0.529,1.335 0,0.731 0.227,1.31 0.529,1.31 z"
           fill="#ffffff"
           id="path14" />
        <path
           d="m 56.597,72.836 c 1.89,-4.963 2.948,-13.604 0,-20.708 z m 0,8.767 c 0.252,0.101 0.529,0.101 0.882,-0.05 0.504,-0.227 1.108,-1.965 1.059,-3.779 -0.051,-2.191 -1.159,-4.258 -1.663,-3.703 a 2.572,2.572 0 0 0 -0.277,0.227 v 1.31 c 0.454,0 0.857,0.982 0.857,2.192 0,1.184 -0.403,2.167 -0.857,2.167 v 1.636 z m -0.654,-7.256 c 0.227,-0.454 0.428,-0.957 0.654,-1.511 V 52.128 a 17.142,17.142 0 0 0 -0.554,-1.184 c -1.99,-2.771 -3.905,-5.214 -5.895,-7.281 a 70.297,70.297 0 0 1 -2.343,-2.645 v 6.55 a 203.57,203.57 0 0 0 3.225,3.451 c 1.637,1.637 3.3,4.736 3.703,8.137 0.05,0.378 -0.076,0.58 -0.328,0.554 0.756,2.192 1.008,4.636 1.033,7.155 0,0.604 -0.604,0.882 -0.604,0.151 -0.05,-2.923 -0.378,-5.845 -1.411,-8.616 -0.378,-0.73 -0.252,-0.932 0.378,-0.604 -0.403,-2.167 -1.411,-3.879 -2.469,-5.466 a 240.568,240.568 0 0 1 -3.527,-3.829 v 11.487 c 1.134,1.159 2.495,2.192 4.132,2.948 0.479,0.377 0.252,0.781 -0.479,0.529 -1.512,-0.706 -2.721,-1.386 -3.653,-2.217 V 68.2 c 1.083,1.209 2.57,2.041 4.132,2.268 0.806,0.05 0.68,0.529 0,0.705 -1.285,0.025 -2.67,-0.604 -4.132,-1.914 v 4.836 c 1.89,1.638 4.308,2.418 6.827,1.663 0.479,-0.126 0.681,-0.252 0.604,0.933 -0.125,1.839 0.177,4.458 1.36,4.912 v -1.638 c -0.479,0 -0.856,-0.982 -0.856,-2.167 0,-1.209 0.378,-2.192 0.856,-2.192 v -1.31 c -1.006,0.832 -0.628,0.177 -0.653,0.051 z M 47.805,41.019 C 41.281,33.436 32.06,20.387 29.994,9.327 c -1.789,-0.05 -2.544,0.832 -2.973,2.117 -0.025,0.024 -0.025,0.05 -0.025,0.05 v 1.587 c 0.328,6.374 4.434,13.906 9.851,21.741 0.806,1.209 2.267,2.746 2.041,3.653 1.259,1.612 2.494,3.224 3.753,4.836 0,0.101 0.025,0.227 0.025,0.353 -3.98,-3.325 -9.321,-11.916 -10.152,-10.857 -1.386,2.57 0.882,9.724 9.85,17.483 0.807,0.705 0.353,0.756 -0.302,0.705 -1.814,-1.184 -3.628,-2.847 -5.442,-4.383 -1.587,-1.889 -2.62,0.076 -2.519,1.965 0.655,4.686 4.686,8.817 12.672,12.319 -1.386,2.796 -0.63,5.492 1.032,7.306 v -6.953 a 7.969,7.969 0 0 1 -0.806,-0.781 c 0,0 0,0.025 -0.025,0.025 -3.073,-3.753 -4.534,-7.356 -2.922,-10.631 0.655,-1.109 1.915,-1.184 3.401,-0.857 0.454,0.353 0,0.681 -0.503,0.529 -4.056,-0.202 -3.401,6.071 0.856,10.455 V 48.5 c -2.695,-2.948 -5.265,-5.92 -7.733,-9.044 -0.529,-0.554 -0.353,-0.857 0.075,-0.58 2.469,2.922 4.988,5.819 7.658,8.691 v -6.548 z m 0,28.24 v 4.836 c -1.839,-1.587 -3.199,-3.98 -3.753,-6.575 a 4.347,4.347 0 0 0 2.368,0.353 14.6,14.6 0 0 0 1.385,1.386 z"
           fill="#ffffff"
           id="path15" />
        <path
           d="m 47.654,75.657 c -1.133,1.411 3.048,6.298 6.097,1.209 -4.358,1.059 -5.517,-1.839 -6.097,-1.209 z M 45.916,61.096 c -2.519,-0.73 -5.29,-2.292 -7.558,-4.257 -0.529,-0.63 -0.756,-0.202 -0.781,0.706 0.05,5.013 2.847,7.96 8.565,9.951 -1.058,-2.142 -1.259,-4.284 -0.226,-6.4 z"
           fill="#ffffff"
           id="path16" />
      </g>
    </g>
  </g>
</svg>
