<?xml version="1.0" encoding="UTF-8" standalone="no"?>
<!-- Created with Inkscape (http://www.inkscape.org/) -->

<svg
   version="1.1"
   id="svg62"
   width="261.60129"
   height="197.27307"
   viewBox="0 0 261.60129 197.27307"
   sodipodi:docname="Dino.svg"
   inkscape:version="1.2.2 (b0a8486541, 2022-12-01)"
   xmlns:inkscape="http://www.inkscape.org/namespaces/inkscape"
   xmlns:sodipodi="http://sodipodi.sourceforge.net/DTD/sodipodi-0.dtd"
   xmlns="http://www.w3.org/2000/svg"
   xmlns:svg="http://www.w3.org/2000/svg">
  <defs
     id="defs66" />
  <sodipodi:namedview
     id="namedview64"
     pagecolor="#ffffff"
     bordercolor="#666666"
     borderopacity="1.0"
     inkscape:showpageshadow="2"
     inkscape:pageopacity="0.0"
     inkscape:pagecheckerboard="0"
     inkscape:deskcolor="#d1d1d1"
     showgrid="false"
     inkscape:zoom="1.9873603"
     inkscape:cx="267.1886"
     inkscape:cy="103.15191"
     inkscape:window-width="1366"
     inkscape:window-height="713"
     inkscape:window-x="0"
     inkscape:window-y="31"
     inkscape:window-maximized="1"
     inkscape:current-layer="g68" />
  <g
     inkscape:groupmode="layer"
     inkscape:label="Image"
     id="g68"
     transform="translate(-2.924314,-5.9024629)">
    <path
       style="fill:#000000;stroke-width:0.32"
       d="m 156.47344,202.67496 c -0.10566,-0.27532 -0.1103,-1.19125 -0.0103,-2.0354 l 0.18178,-1.53481 -4.37964,-0.25623 c -2.4088,-0.14093 -6.15438,-0.269 -8.3235,-0.28461 -3.51504,-0.0253 -3.99345,-0.0959 -4.4,-0.64953 -1.32962,-1.81064 0.7146,-6.3777 3.61565,-8.07783 1.00054,-0.58636 1.6303,-1.28405 2.22026,-2.45977 1.25926,-2.50952 2.66271,-4.05033 7.35879,-8.07903 4.85604,-4.16592 5.60432,-5.1227 5.47632,-7.00221 l -0.0872,-1.28 -3.2,-0.18688 c -2.64667,-0.15457 -3.56868,-0.35642 -5.33216,-1.16731 l -2.13215,-0.98042 -2.11182,1.41671 c -1.16149,0.77919 -3.12731,2.37468 -4.36847,3.54553 -3.71628,3.50574 -4.6653,5.64695 -5.1217,11.55568 -0.32416,4.19664 -0.78995,5.77708 -2.1083,7.15347 -2.44746,2.55521 -11.02771,4.24919 -23.80891,4.70053 -7.62885,0.26939 -11.339812,0.0498 -12.549222,-0.74266 -0.57372,-0.37592 -0.85919,-0.92532 -1.0127,-1.94906 l -0.21377,-1.42559 h -2.36225 c -2.07832,0 -2.42212,-0.0855 -2.86039,-0.7112 -0.61958,-0.88458 -0.6416,-2.56486 -0.0485,-3.70469 0.65687,-1.26249 1.75096,-2.1811 3.54062,-2.97275 1.44748,-0.64029 1.90354,-0.68174 5.35464,-0.4867 4.463652,0.25226 4.712492,0.16395 7.359952,-2.61195 3.11108,-3.26202 10.47263,-15.12081 10.48905,-16.89693 0.003,-0.36532 -0.3713,-1.01332 -0.83262,-1.44 -1.38252,-1.27871 -3.89985,-5.05461 -4.57774,-6.86644 -0.349,-0.93279 -0.8667,-3.03399 -1.15044,-4.66934 -0.28373,-1.63534 -0.61671,-3.15352 -0.73994,-3.37373 -0.21324,-0.38103 -4.79306,-4.15551 -6.45227,-5.31766 -0.43078,-0.30174 -0.93886,-0.54861 -1.12906,-0.54861 -0.1902,0 -0.66574,0.99334 -1.05676,2.20743 -0.7887,2.44882 -1.35436,3.18043 -1.926252,2.49134 -0.47005,-0.56638 -1.81941,-6.92875 -2.30425,-10.86477 -0.21178,-1.7193 -0.49205,-3.19212 -0.62281,-3.27294 -0.33917,-0.20962 -3.4659,3.15856 -5.12333,5.51894 -0.7724,1.1 -1.51496,2 -1.65012,2 -0.13516,0 -0.43081,-0.324 -0.65701,-0.72 -0.30379,-0.53186 -0.40527,-2.61724 -0.38836,-7.98069 0.0205,-6.5081 -0.0292,-7.23228 -0.48,-6.98649 -0.27659,0.15082 -1.65489,1.43791 -3.06289,2.86019 -1.408,1.42229 -2.74,2.5862 -2.96,2.58648 -0.30163,3.2e-4 -0.399999,-1.14055 -0.399999,-4.63949 0,-3.02635 -0.116813,-4.64 -0.335891,-4.64 -0.671565,0 -2.430247,1.07902 -4.499732,2.76076 -1.16359,0.94558 -2.20759,1.71924 -2.319999,1.71924 -0.810468,0 1.328134,-8.23279 3.110198,-11.97307 0.761757,-1.59881 2.207206,-3.98609 3.212109,-5.30506 1.361094,-1.78649 1.772404,-2.56184 1.612684,-3.04 -0.11793,-0.35303 -0.28519,-3.34865 -0.37168,-6.65694 -0.11334,-4.332882 -0.25945,-5.971672 -0.52253,-5.859892 -2.093072,0.88941 -9.842102,3.181382 -12.432054,3.677102 -9.314332,1.78276 -16.712357,2.22106 -25.407071,1.50526 C 25.006133,97.14512 18.891698,93.552858 10.46789,78.921768 7.1081541,73.086338 4.7364411,66.988906 3.3473251,60.615536 2.6986971,57.639581 2.8211001,46.922118 3.5428501,43.495536 5.6932411,33.286339 10.874493,27.04311 18.974152,24.901353 c 2.004186,-0.529958 4.062726,-0.717832 10.191469,-0.93013 8.566319,-0.296735 12.275525,-0.85937 17.976005,-2.726709 3.533114,-1.157361 7.902458,-3.271452 9.446426,-4.570617 0.510966,-0.42995 1.299696,-1.518971 1.752729,-2.420045 0.453034,-0.901073 1.334467,-2.358316 1.958742,-3.238316 2.896292,-4.0827223 4.507844,-5.1016171 8.086413,-5.1125831 2.341923,-0.0072 2.506457,0.0444 5.079952,1.5925828 1.4628,0.88 3.635094,2.5 4.827321,3.6000003 1.192227,1.1 2.344794,2 2.561264,2 0.216467,0 0.969405,-0.520225 1.673195,-1.156055 1.86953,-1.689013 3.87318,-2.4986123 6.15795,-2.4881913 4.60729,0.02101 7.33186,1.8148763 16.193372,10.6617583 7.56322,7.550735 10.21149,10.923093 13.22516,16.841134 2.50713,4.923319 3.60338,8.119021 5.27814,15.386407 1.53692,6.669193 2.47451,9.53008 4.50382,13.742621 2.73316,5.673598 4.70699,7.071508 13.2795,9.404858 10.72341,2.9188 19.6814,6.7528 29.44,12.60024 5.47686,3.28178 7.29765,4.52239 10.2782,7.0031 5.08733,4.234182 7.47344,5.714852 10.5218,6.529142 4.37386,1.16836 10.34976,-0.30706 15.52,-3.83179 2.24319,-1.52927 8.15812,-7.415082 10.82651,-10.773222 7.0692,-8.89651 13.99705,-15.79916 19.25349,-19.183477 2.64949,-1.705847 6.65487,-3.613018 9.31082,-4.433357 4.37771,-1.352134 10.72753,-1.651632 14.20812,-0.670141 0.75311,0.212368 1.83855,0.920253 2.64,1.721706 1.21508,1.215072 1.36106,1.522278 1.36106,2.864198 0,0.82673 -0.15948,1.817677 -0.3544,2.202106 -0.19492,0.384429 -2.40731,2.786965 -4.91642,5.338965 -5.34221,5.43354 -7.9855,8.64882 -11.44365,13.92 -3.31702,5.05605 -6.2353,11.048532 -8.25934,16.960002 -5.44603,15.90577 -10.8131,24.87995 -19.55041,32.68988 -11.80416,10.55127 -21.38865,16.31334 -32.75578,19.69236 -1.76,0.52318 -3.25893,1.01014 -3.33096,1.08213 -0.072,0.072 0.69814,1.00013 1.71149,2.06253 l 1.84246,1.93162 -0.11149,2.79127 c -0.10973,2.74701 -0.15298,2.87753 -2.72716,8.23074 -3.21011,6.67567 -3.66455,7.98029 -3.86551,11.09706 -0.23645,3.66709 -1.5e-4,4.41159 2.15505,6.78976 2.11422,2.33296 2.51578,3.63558 2.30363,7.47265 -0.0535,0.96814 -0.13635,1.04 -1.19854,1.04 -1.41761,0 -2.12487,-0.36787 -4.09357,-2.12917 -0.85504,-0.76495 -1.69825,-1.39083 -1.87382,-1.39083 -0.17556,0 -1.19848,0.22785 -2.27316,0.50632 -1.07468,0.27848 -3.32746,0.61527 -5.00619,0.74842 -2.65233,0.21037 -3.25971,0.37471 -4.63582,1.25427 -1.78669,1.142 -7.77405,3.57099 -8.80233,3.57099 -0.37079,0 -0.7606,-0.22526 -0.86625,-0.50058 z m 5.92134,-3.8262 c 1.52396,-0.79572 3.05883,-1.66851 3.41083,-1.93951 0.62874,-0.48407 0.62174,-0.50918 -0.39753,-1.42651 -1.18707,-1.06836 -2.50894,-1.49902 -3.252,-1.05949 -0.81461,0.48185 -3.33241,5.87229 -2.74286,5.87229 0.1159,0 1.45761,-0.65105 2.98156,-1.44678 z m 20.85083,-1.83821 c 0,-1.58988 -1.01048,-3.16549 -2.55338,-3.9814 -1.48295,-0.7842 -1.92662,-0.72406 -1.92662,0.26117 0,1.00618 0.80941,2.3147 2.22021,3.58927 1.64521,1.48635 2.25979,1.52196 2.25979,0.13096 z m -36.05193,-1.57284 c 0.49213,-0.26338 0.57525,-0.56749 0.43696,-1.59855 -0.20306,-1.51389 -1.00298,-2.50362 -2.02349,-2.50362 -1.4978,0 -4.40824,3.49833 -3.76983,4.53131 0.25174,0.40731 4.41697,0.0736 5.35636,-0.42914 z m 11.37401,-0.5572 c 1.22213,-1.79805 2.85615,-3.22497 3.69302,-3.22497 1.04149,0 2.80048,0.87587 4.5049,2.24318 l 1.28,1.02683 3.04,-0.16211 c 1.672,-0.0892 3.616,-0.37107 4.32,-0.62648 1.153,-0.41829 1.30569,-0.60412 1.53892,-1.87289 0.14241,-0.77469 0.28869,-3.42453 0.32508,-5.88853 0.0778,-5.26499 0.55767,-7.14945 3.09697,-12.1609 3.62095,-7.14615 4.11654,-9.04786 2.95854,-11.35272 -0.57934,-1.15309 -2.2146,-2.44754 -3.49928,-2.76998 -0.59794,-0.15007 -1.22651,0.27458 -3.31594,2.24016 -4.43089,4.16826 -8.6085,6.62844 -12.86429,7.57572 -1.012,0.22526 -1.85446,0.49465 -1.87214,0.59864 -0.0177,0.104 -0.0699,1.06931 -0.11612,2.14515 -0.14539,3.38673 -1.68132,5.47374 -7.62729,10.36393 -2.07807,1.70908 -4.84965,4.82583 -5.64692,6.35019 -0.33719,0.64471 -0.29744,0.85123 0.2827,1.46876 0.73783,0.78538 1.29977,2.40903 1.29977,3.75547 0,1.11229 0.35677,1.199 4.60208,1.11853 3.27344,-0.062 3.5131,-0.11165 4,-0.82798 z m -54.34404,-1.33867 c 0.47163,-0.88124 0.13226,-2.6111 -0.6514,-3.32029 -0.84174,-0.76177 -2.05481,-0.42183 -3.44088,0.96424 -1.556912,1.55691 -1.369232,2.48531 0.55425,2.74169 2.74661,0.3661 3.15982,0.32106 3.53803,-0.38564 z m 8.46197,0.18167 c 6.75641,-0.40457 13.57401,-1.6372 16.64,-3.00853 2.56232,-1.14606 2.83036,-1.72737 3.0771,-6.67369 0.23074,-4.62536 0.6714,-6.49409 2.12555,-9.01387 1.10797,-1.9199 4.58125,-5.29562 7.21202,-7.00947 1.17993,-0.76867 2.14532,-1.5169 2.14532,-1.66273 0,-0.14582 -0.91188,-1.31691 -2.0264,-2.60241 -1.11452,-1.2855 -2.4886,-3.02005 -3.05351,-3.85457 -1.08694,-1.60568 -1.10253,-1.61268 -4.84009,-2.17512 -5.95912,-0.89674 -11.86475,-2.70663 -16.5995,-5.08722 -1.42246,-0.7152 -2.66148,-1.30036 -2.75339,-1.30036 -0.40104,0 -0.10598,2.08043 0.6217,4.38348 0.95283,3.01567 2.01203,4.74432 4.60626,7.51755 1.08071,1.15529 1.96494,2.33734 1.96494,2.62677 0,1.44672 -4.74234,10.01251 -8.36664,15.11215 -2.62355,3.6915 -4.74032,5.76798 -6.81545,6.6857 l -1.75481,0.77606 0.62142,1.36915 c 0.34178,0.75302 0.62458,1.95714 0.62845,2.67581 0.004,0.71866 0.10459,1.40423 0.22385,1.52348 0.11924,0.11925 0.87524,0.14766 1.68,0.0631 0.80474,-0.0845 2.90318,-0.23992 4.66318,-0.34531 z m -14.345992,-3.51509 c 1.817092,-0.90549 2.833452,-1.86304 2.518452,-2.37272 -0.11852,-0.19176 -1.267432,-0.34016 -2.633582,-0.34016 -1.89938,0 -2.65725,0.14456 -3.50516,0.6686 -1.12895,0.69773 -1.71372,1.49975 -1.71372,2.35036 0,0.86294 3.37697,0.66916 5.33401,-0.30608 z m 62.998752,-23.35963 c 4.3512,-1.11048 10.1778,-4.68022 13.63421,-8.35317 4.97715,-5.28896 9.0788,-13.90365 10.44183,-21.93095 0.78643,-4.63153 0.92491,-4.78051 2.77415,-2.98466 1.11457,1.0824 1.15047,1.18718 0.95948,2.8 -0.68732,5.80402 -3.36658,13.65106 -5.94548,17.41319 -0.50433,0.73571 -0.91696,1.41971 -0.91696,1.52 0,0.75276 7.19828,-1.65148 12.42078,-4.14857 8.06108,-3.85432 17.11337,-10.33237 24.96925,-17.86864 3.74975,-3.59719 7.46637,-8.96775 10.7742,-15.56889 2.44035,-4.86997 3.27738,-6.91777 5.75176,-14.07156 4.36176,-12.610552 10.82268,-22.458622 21.64601,-32.993988 4.05006,-3.942314 4.12741,-4.701194 0.53224,-5.222586 l -1.50575,-0.218374 -0.82548,1.629011 c -0.83834,1.654378 -2.11501,2.701543 -3.72465,3.055079 -1.00479,0.220691 -3.77125,-0.855197 -4.62514,-1.798736 -0.74539,-0.823652 -1.61025,-0.768532 -3.61481,0.23038 l -1.68724,0.840791 0.19742,1.479209 c 0.31321,2.346712 -0.29512,4.844062 -1.43211,5.879212 -1.20599,1.09797 -2.6762,1.14922 -6.02346,0.20998 l -2.38782,-0.67002 -2.41623,2.41623 -2.41624,2.41624 0.91055,3.13378 c 1.5406,5.30218 1.15025,8.01888 -1.32918,9.25064 -1.01709,0.50528 -1.9491,0.60315 -5.74357,0.60315 h -4.52948 l -2.6972,2.602142 -2.69721,2.60214 0.29341,2.35786 c 0.45401,3.64847 0.15452,8.47067 -0.63665,10.25087 -1.91975,4.31961 -6.22818,3.3681 -12.53985,-2.76941 -3.01197,-2.92887 -3.54168,-3.31383 -4.82355,-3.50543 -0.792,-0.11839 -2.16392,-0.36664 -3.04872,-0.55168 l -1.60872,-0.33643 -2.87128,2.16762 c -7.85052,5.92663 -14.08846,6.10225 -17.60518,0.49567 -2.03652,-3.24675 -2.816,-6.83334 -3.21768,-14.805282 l -0.18804,-3.73193 -4.32221,-1.96938 c -2.37722,-1.08316 -4.40063,-1.89096 -4.49649,-1.7951 -0.0959,0.0959 -0.83965,1.94144 -1.65287,4.10131 -3.1896,8.471332 -7.26615,11.909582 -11.72119,9.885922 -3.81086,-1.73105 -6.96373,-8.216222 -8.63977,-17.771242 -0.69584,-3.96693 -1.05573,-4.96534 -1.79614,-4.98275 -0.11456,-0.003 -1.09407,-0.67076 -2.1767,-1.48458 l -1.9684,-1.47968 -2.20587,1.01676 c -6.51759,3.00415 -12.22714,2.2066 -13.82333,-1.93092 -1.6743,-4.339986 0.90923,-14.505954 5.42278,-21.338184 l 1.11759,-1.691706 -0.55245,-1.988294 c -1.09254,-3.932205 -3.83221,-10.281392 -6.00495,-13.916503 -4.84961,-8.113635 -12.7289,-16.130692 -18.957332,-19.288798 -2.45753,-1.246083 -2.79551,-1.33294 -4.71195,-1.21091 -1.7378,0.110654 -2.31347,0.31028 -3.63761,1.261408 -0.86519,0.621473 -1.61957,1.371355 -1.6764,1.666406 -0.0568,0.295051 0.78685,1.769518 1.87482,3.276592 1.08797,1.507074 1.8974,2.820876 1.79871,2.919559 -0.0987,0.09868 -1.36212,-1.070014 -2.80764,-2.597106 C 81.516512,16.045658 76.426377,12.12731 73.334646,10.645094 71.666454,9.8453387 70.673597,9.5755357 69.398755,9.5755357 c -2.080185,0 -3.073725,0.4849353 -4.77504,2.3306443 -1.32976,1.442617 -4.868032,8.216181 -6.603276,12.641114 -0.49785,1.269533 -1.094935,2.308242 -1.326851,2.308242 -0.231917,0 -0.858704,-0.497755 -1.392858,-1.106121 -0.887766,-1.011111 -0.943584,-1.206093 -0.649821,-2.270007 0.176749,-0.640137 0.267002,-1.218248 0.20056,-1.28469 -0.06645,-0.06644 -1.471705,0.4616 -3.122806,1.173429 -6.188672,2.668081 -11.918649,3.746832 -21.923043,4.127326 -4.821811,0.183387 -7.961954,0.448346 -9.10549,0.768304 -7.132229,1.995577 -11.8267989,7.556645 -13.6688439,16.191759 -0.816912,3.829514 -0.816865,12.291299 8.9e-5,15.776374 1.329118,5.669943 4.7100769,14.661998 6.0720799,16.149408 1.175431,1.28366 3.403757,1.69976 10.142166,1.89389 13.467897,0.388 22.467657,-1.28535 31.350725,-5.82915 4.62144,-2.36393 11.569411,-7.368871 12.081241,-8.702672 0.09946,-0.259191 -0.351481,-0.99097 -1.054013,-1.710426 -1.147116,-1.174752 -1.1791,-1.257424 -0.486467,-1.257424 1.141632,0 3.135213,1.267411 3.989725,2.536454 0.890986,1.3232 1.643155,3.486247 1.323136,3.804986 -0.210099,0.209254 -1.16975,-0.787587 -1.741152,-1.808627 -0.216218,-0.386355 -0.868134,0.06263 -3.210624,2.211197 -3.880451,3.559209 -5.940982,4.955732 -10.389011,7.041132 -3.542816,1.661 -3.708201,1.78254 -3.884604,2.85486 -0.488644,2.97031 -1.499188,5.58423 -2.574637,6.65968 -0.951911,0.95191 -1.252493,1.07677 -2.215853,0.92043 -1.536541,-0.24934 -2.695286,-1.15049 -4.606422,-3.58236 -0.898064,-1.14276 -1.756413,-2.07775 -1.907443,-2.07775 -0.151031,0 -0.722058,0.0895 -1.268951,0.19887 -0.895865,0.17917 -1.047692,0.38898 -1.532931,2.11835 -0.744941,2.65496 -1.730739,3.76278 -3.348316,3.76278 -1.019175,0 -1.516144,-0.23784 -2.611552,-1.24985 -0.744068,-0.68741 -1.712851,-1.83553 -2.152851,-2.55139 -1.115924,-1.81553 -1.720644,-1.69543 -2.863588,0.56873 -1.79376,3.55341 -3.955542,4.24164 -6.133103,1.95255 -0.669677,-0.70398 -1.38665,-1.84422 -1.593277,-2.53388 -0.388701,-1.29737 -0.897123,-1.61329 -2.610032,-1.62179 -0.512412,-0.003 -0.88,0.16996 -0.88,0.41298 0,0.89493 2.120193,3.70643 4.757373,6.30856 4.484595,4.42499 8.003027,5.88083 18.762626,7.76351 5.311072,0.92932 6.308688,1.00704 12.8,0.99721 5.68807,-0.009 7.926342,-0.14922 11.655523,-0.73218 13.746265,-2.14885 26.488075,-7.52889 34.382755,-14.51761 2.46045,-2.1781 5.442722,-6.28 6.538822,-8.993671 1.82041,-4.506864 1.16017,-9.779075 -2.00566,-16.015782 -0.97509,-1.920938 -1.71398,-3.551523 -1.64198,-3.623527 0.072,-0.072 1.40556,1.355674 2.96344,3.172612 3.90592,4.555395 4.66427,6.300896 4.84404,11.14951 0.12323,3.323821 0.057,3.915114 -0.67434,6.017998 -1.31677,3.7864 -3.30661,6.94124 -6.3026,9.99265 -2.967682,3.02258 -5.939362,5.15286 -11.360002,8.14355 l -3.52,1.94206 -0.0916,4.948882 c -0.10584,5.71553 0.34048,9.17176 2.02472,15.67897 1.63848,6.33045 2.41425,8.62991 2.91148,8.62991 0.2395,0 0.43545,-0.12317 0.43545,-0.27372 0,-0.15055 0.84987,-1.20121 1.88861,-2.33481 1.48176,-1.61708 2.4366,-2.31824 4.43237,-3.2548 2.278582,-1.06927 6.846182,-2.39749 10.053742,-2.92353 l 1.17473,-0.19266 -0.0393,-3.43024 c -0.0403,-3.5114 0.36014,-5.06425 1.79192,-6.94974 0.79309,-1.0444 0.85318,-0.4398 0.15925,1.6025 -0.85965,2.53006 -0.64076,5.09418 0.68436,8.01667 1.09267,2.40985 1.22242,3.49666 0.45269,3.79203 -0.28691,0.1101 -1.97891,0.41898 -3.76,0.68639 -11.638502,1.74744 -15.589262,5.18362 -16.379822,14.24636 -0.32587,3.73575 -0.13311,3.93994 1.8734,1.98453 2.04627,-1.99416 5.91597,-4.88898 6.535432,-4.88898 0.32972,0 0.39004,0.19912 0.21812,0.72 -0.34856,1.05609 -0.28393,8.9737 0.0785,9.6214 0.25429,0.45439 0.565,0.0525 1.73291,-2.24126 2.70283,-5.30838 6.11729,-7.87139 13.58307,-10.19589 6.09439,-1.89751 8.58969,-3.33817 9.84295,-5.68279 0.96752,-1.81006 0.95655,-6.24347 -0.0251,-10.13227 -0.76002,-3.01089 -0.49733,-4.05083 0.51714,-2.04726 1.42535,2.81504 2.99596,7.64202 3.17276,9.75085 0.26636,3.17717 -0.30139,4.87554 -2.29887,6.8769 -1.99063,1.99448 -4.4795,3.20929 -9.75431,4.76102 -2.19196,0.64484 -4.78396,1.54796 -5.76,2.00694 -2.41459,1.13548 -4.98599,3.85429 -6.67556,7.05825 l -1.38097,2.61874 0.90097,0.80936 c 3.56628,3.20368 12.51941,8.19426 18.32729,10.21585 4.77804,1.66312 12.37215,3.32807 12.84893,2.81701 0.12153,-0.13027 -0.15678,-1.89285 -0.61847,-3.91685 -0.78621,-3.44668 -0.8399,-4.19735 -0.84694,-11.84 -0.007,-7.14407 0.0848,-8.67793 0.73408,-12.32 0.89821,-5.03852 1.02763,-5.60002 1.29076,-5.59992 0.11292,5e-5 0.21212,4.35605 0.22046,9.68 0.0191,12.23353 0.79051,18.11571 3.13764,23.92662 1.70884,4.23067 5.07791,8.54519 8.27444,10.59649 3.7355,2.39717 9.00983,3.18763 13.54553,2.03006 z M 65.965619,54.251504 c -4.025801,-0.980288 -7.45574,-3.757581 -9.207071,-7.455152 -0.969552,-2.047008 -1.032928,-2.397258 -1.032928,-5.708406 0,-3.350141 0.05356,-3.636336 1.06472,-5.689482 1.368304,-2.778314 3.627945,-5.028333 6.373161,-6.346013 3.83952,-1.84294 9.046844,-1.613851 12.758441,0.561289 1.909203,1.118868 4.335523,3.82203 5.42303,6.041796 0.867486,1.770675 0.940646,2.19376 0.940646,5.44 0,3.292874 -0.0658,3.658822 -1.019193,5.671466 -2.819168,5.951123 -9.06038,9.004054 -15.300806,7.484502 z m 2.336976,-2.966813 c 0.10632,-1.459113 0.375763,-1.277897 -2.816976,-1.894582 -0.951404,-0.183763 -0.96,-0.172589 -0.96,1.248214 0,1.385639 0.04018,1.444496 1.2,1.758058 2.075875,0.561219 2.467383,0.392326 2.576976,-1.11169 z m 4.617133,0.811184 c 0.397334,-0.212649 0.565891,-0.686605 0.565891,-1.591206 V 49.21632 l -1.52,0.220381 c -0.836,0.121209 -1.628,0.282531 -1.76,0.358493 -0.132,0.07596 -0.24,0.793641 -0.24,1.594841 v 1.456727 l 1.194109,-0.224016 c 0.656761,-0.12321 1.448761,-0.360301 1.76,-0.526871 z m -9.994109,-2.177481 c 0,-0.973495 -0.70592,-1.942858 -1.414844,-1.942858 -0.225021,0 -1.020132,-0.442605 -1.766909,-0.983568 -0.746778,-0.540963 -1.435888,-0.905456 -1.531357,-0.809987 -0.458809,0.458809 3.385216,4.673555 4.26248,4.673555 0.284925,0 0.45063,-0.344605 0.45063,-0.937142 z m 14.488784,-0.45025 c 2.456518,-2.387459 3.309952,-4.273024 1.289641,-2.849306 -0.494134,0.348218 -1.510425,0.942855 -2.258425,1.321415 -1.207571,0.611145 -1.36,0.813091 -1.36,1.801785 0,1.503412 0.568918,1.4365 2.328784,-0.273894 z m -9.779344,-8.358973 c 0.527786,-0.613584 0.73056,-1.250893 0.73056,-2.296096 0,-3.78656 -4.928358,-4.630393 -6.392934,-1.094595 -0.521203,1.258294 -0.201949,2.431402 0.984602,3.617955 0.862329,0.862327 1.109356,0.94193 2.453052,0.790477 1.090336,-0.122896 1.69161,-0.397962 2.22472,-1.017741 z m 6.42656,0.402365 c 0.644394,-0.644394 0.472944,-2.425882 -0.271824,-2.82447 -1.834483,-0.981786 -3.804787,0.773635 -2.722432,2.42552 0.566102,0.86398 2.298413,1.094793 2.994256,0.39895 z m -58.216816,9.454819 c -0.314063,-0.378425 -0.439182,-1.540777 -0.439182,-4.08 0,-3.02503 0.102003,-3.740355 0.688858,-4.830819 0.891337,-1.656237 1.856716,-2.53728 3.648723,-3.329968 2.35183,-1.040326 3.880159,-1.170221 4.586425,-0.389805 0.511904,0.565651 0.575379,1.051722 0.452979,3.4688 -0.20536,4.055242 -1.480467,6.289207 -4.876342,8.543261 -1.8804,1.248138 -3.35283,1.472378 -4.061461,0.618531 z m 3.775624,-3.170925 c 0.591367,-0.451059 1.50361,-1.567059 2.0272,-2.48 0.77577,-1.35264 0.952544,-2.030105 0.954992,-3.659894 0.0019,-1.184989 -0.133875,-2 -0.332889,-2 -1.035012,0 -3.344772,1.910154 -4.062919,3.36 -0.419917,0.847754 -0.795612,4.393712 -0.536937,5.067808 0.280464,0.73088 0.695084,0.669677 1.950553,-0.287914 z m 67.517911,74.1061 c -0.13864,-0.7064 -2.8075,-9.28553 -3.28694,-10.56599 -0.40872,-1.09157 -3.719376,3.89073 -4.626176,6.96206 -0.221178,0.74914 -0.316579,1.44763 -0.212,1.55221 0.104579,0.10458 1.090131,-0.12131 2.190112,-0.50199 1.101144,-0.38107 2.333054,-0.60852 2.741124,-0.50611 0.70641,0.1773 0.74116,0.32146 0.74116,3.07501 v 2.88898 l 1.30545,-1.04909 c 1.0542,-0.84718 1.27501,-1.20423 1.14727,-1.85508 z M 208.77771,111.24782 c 1.02066,-1.08644 1.46653,-3.72857 1.22031,-7.2313 -0.11651,-1.65744 -0.27881,-3.12189 -0.36067,-3.25434 -0.0819,-0.13245 -1.36548,0.38522 -2.8525,1.15038 -1.48701,0.76517 -3.97167,1.78082 -5.52145,2.257 -1.54978,0.47619 -2.87431,0.91186 -2.94339,0.96815 -0.22192,0.18087 0.70426,1.133 3.38959,3.48455 3.90946,3.42353 5.69526,4.08689 7.06811,2.62556 z M 180.5376,107.5369 c 2.34516,-1.09743 6.55349,-3.74651 6.53695,-4.11491 -0.006,-0.13554 -1.33809,-1.13523 -2.96,-2.22152 -1.62192,-1.08629 -5.18094,-3.75763 -7.90894,-5.936302 -5.18371,-4.1399 -7.26018,-5.57512 -7.58952,-5.24578 -0.28949,0.2895 -0.14795,5.85565 0.21377,8.406092 1.28673,9.07262 5.23157,12.14299 11.70774,9.11242 z M 149.29831,95.118868 c 1.41481,-1.54566 3.3709,-5.28033 4.52963,-8.64822 1.03393,-3.00517 0.99069,-3.09607 -2.02233,-4.2513 -4.13044,-1.58368 -14.43703,-4.46578 -14.78409,-4.13418 -0.78828,0.75318 1.20797,9.35935 3.14183,13.54493 1.85754,4.02041 3.61708,5.428552 6.44226,5.155722 1.0456,-0.10098 1.5387,-0.40624 2.6927,-1.666952 z m 76.97126,-3.67425 c 1.24925,-0.56919 1.53983,-2.13041 0.93844,-5.04195 -0.54609,-2.64379 -1.01023,-3.76562 -1.38248,-3.34149 -0.13244,0.1509 -1.70069,2.10026 -3.48501,4.33192 -2.57312,3.21823 -3.12948,4.08763 -2.68956,4.20288 1.17648,0.30823 5.84421,0.20148 6.61861,-0.15136 z M 24.110456,82.269198 c 0.580339,-0.76088 1.055165,-1.51622 1.055165,-1.67854 0,-0.16232 -1.152,-0.29512 -2.56,-0.29512 -2.857898,0 -2.971971,0.11659 -1.878535,1.92 1.236026,2.03858 1.861847,2.04851 3.38337,0.0537 z m 10.983782,0.18634 c 1.113741,-2.45363 1.009465,-2.58412 -1.929056,-2.41401 -1.408243,0.0815 -2.646784,0.23456 -2.752317,0.3401 -0.290525,0.29052 1.459709,2.4444 2.403034,2.95722 1.291833,0.70228 1.615587,0.57676 2.278339,-0.88331 z m 12.592499,-0.38829 c 0.789481,-0.85186 1.478883,-2.77658 1.478883,-4.12884 0,-0.46358 -0.04662,-0.84287 -0.103607,-0.84287 -0.05699,0 -1.306361,0.36 -2.776393,0.8 -1.470032,0.44 -2.935408,0.8 -3.256394,0.8 -0.847132,0 -0.719808,0.55898 0.427709,1.87775 1.128099,1.29646 2.454234,2.27694 3.083965,2.28014 0.228403,0.001 0.744032,-0.35262 1.145837,-0.78618 z m 192.214973,-7.39111 c 0.50847,-0.61267 0.76294,-3.657098 0.35592,-4.258234 -0.23594,-0.34847 -0.67889,-0.171072 -2.17416,0.87073 -2.38793,1.663744 -3.31786,2.467134 -3.31786,2.866404 0,0.84808 4.48692,1.30331 5.1361,0.5211 z m -116.7583,-1.70544 c 1.50799,-0.51882 3.68894,-1.49498 4.05433,-1.81465 0.0617,-0.05395 -0.32826,-0.647638 -0.86651,-1.319302 -1.17345,-1.464333 -3.6021,-6.57186 -4.47685,-9.414954 -0.34627,-1.12544 -0.80726,-3.162256 -1.02444,-4.526256 -0.21717,-1.364 -0.49935,-2.48 -0.62707,-2.48 -0.64952,0 -3.23975,4.8332 -4.36867,8.151645 -1.75606,5.16192 -1.63908,8.778585 0.35223,10.889987 0.99414,1.05409 1.17384,1.11837 3.12688,1.11837 1.19856,0 2.81324,-0.25498 3.8301,-0.60484 z M 253.18015,67.03008 c 1.21698,-1.216976 1.02347,-1.561549 -0.73454,-1.307914 -2.14929,0.31009 -2.96,0.527552 -2.96,0.793988 0,0.314092 1.82956,1.19224 2.65454,1.274118 0.14,0.01389 0.608,-0.328192 1.04,-0.760192 z"
       id="path353" />
  </g>
</svg>
