<?xml version="1.0" encoding="UTF-8" standalone="no"?>
<!-- Created with Inkscape (http://www.inkscape.org/) -->

<svg
   version="1.1"
   id="svg1"
   width="2176.5422"
   height="2353.0264"
   viewBox="0 0 2176.5422 2353.0263"
   xmlns="http://www.w3.org/2000/svg"
   xmlns:svg="http://www.w3.org/2000/svg">
  <defs
     id="defs1" />
  <g
     id="g1">
    <path
       style="fill:#000000"
       d="m 1330.5386,2352.7156 c -44.778,-4.6835 -71.7934,-15.0807 -83.5377,-32.1505 -6.491,-9.4343 -8.6765,-19.2998 -11.9659,-54.0165 -4.1461,-43.758 -11.5719,-75.3909 -20.6846,-88.1128 -12.8841,-17.9872 -52.223,-58.9469 -105.4741,-109.8198 -49.5197,-47.3082 -62.895,-61.4941 -68.5305,-72.6843 -3.3529,-6.6576 -3.7398,-8.3342 -3.7398,-16.207 0,-9.8598 3.9369,-33.7229 8.1061,-49.1347 2.7166,-10.042 2.7285,-10.2491 0.7398,-12.9127 -8.0633,-10.8 -49.29525,-17.7301 -114.01435,-19.1632 -28.6923,-0.6354 -118.6469,1.2652 -130.6643,2.7607 l -5.5407,0.6895 19.3878,20.4944 c 10.6633,11.2719 24.1229,25.8337 29.9103,32.3595 46.5917,52.5371 70.5156,107.0705 76.6593,174.7416 1.4057,15.4833 1.379,48.0419 -0.051,62.1778 -4.0099,39.6397 -16.6467,70.3031 -38.7084,93.9265 -18.9656,20.3082 -38.4378,30.2063 -59.3975,30.1929 -18.9209,-0.012 -31.1224,-5.89 -50.7196,-24.4337 -13.4082,-12.6873 -23.4823,-19.338 -26.2415,-17.3242 -0.8129,0.5933 -2.6448,1.9088 -4.0709,2.9233 -5.4217,3.857 -15.7236,5.5985 -32.7658,5.539 -25.4688,-0.089 -39.4825,-3.9749 -50.0785,-13.8862 -6.9154,-6.4685 -11.3167,-13.3878 -14.5352,-22.8504 -6.8642,-20.1818 -6.4604,-43.1102 1.516,-86.0628 2.8499,-15.3466 3.9555,-43.0971 2.2348,-56.0898 -4.7168,-35.6142 -20.5571,-71.3527 -59.7608,-134.8315 -30.8285,-49.9178 -41.0832,-67.7749 -52.77933,-91.9085 l -7.73327,-15.9567 -0.41434,-10.7865 c -0.49013,-12.7595 1.20425,-20.5503 7.27223,-33.4382 7.84688,-16.6661 17.36051,-26.7296 35.67171,-37.7334 10.5096,-6.3157 17.2584,-11.847 17.2584,-14.1452 0,-2.1085 -11.2987,-11.8179 -25.2657,-21.7118 -39.03443,-27.6509 -69.99794,-60.7482 -101.26992,-108.2487 -30.44385,-46.2427 -57.50276,-103.9015 -73.36461,-156.3299 -20.68076,-68.3564 -27.50342,-179.5154 -17.93291,-292.174 1.17833,-13.8706 3.33525,-34.4998 4.79314,-45.8427 6.05882,-47.1392 6.98161,-55.0087 8.80576,-75.0952 2.37988,-26.2058 2.72076,-90.54353 0.58865,-111.10093 -7.47584,-72.0807 -27.41289,-123.82543 -62.54785,-162.33712 -31.9563,-35.02754 -81.61419,-60.262 -132.90767,-67.53916 -15.07092,-2.13816 -48.45226,-1.8669 -63.10112,0.51277 -27.235225,4.42428 -45.467725,10.44072 -78.741575,25.98348 -25.14313,11.74478 -36.21537,16.41183 -41.3920398,17.44717 -2.48448,0.49689 -3.42872,0.15691 -4.35117,-1.56672 -3.00781,-5.62014 -0.38622995,-16.11159 8.14977,-32.61505 C 17.748605,718.01595 30.359095,701.54306 47.343675,684.62337 101.7943,630.3808 171.0262,597.32823 251.88698,586.97068 c 26.60286,-3.40759 67.22426,-2.39612 94.38201,2.35012 65.45477,11.43922 120.41411,40.74169 160.42346,85.53241 42.0008,47.0201 57.3417,77.58411 81.6472,162.66731 9.2743,32.46509 28.9397,110.50335 44.8031,177.79208 25.7746,109.3298 38.1669,149.0795 63.0526,202.2472 34.4126,73.5218 77.021,126.4363 135.496,168.2697 39.3336,28.1394 83.175,48.367 117.9549,54.4221 12.0433,2.0967 29.3618,2.1186 38.1427,0.048 8.0086,-1.8883 20.77215,-7.4795 20.77215,-9.0994 0,-0.6305 -2.0629,-1.1547 -4.5843,-1.165 -22.47975,-0.092 -61.51725,-22.4453 -88.75255,-50.821 -24.7257,-25.761 -29.8994,-44.8811 -31.7754,-117.43 -1.2543,-48.5059 -1.8918,-50.4807 -23.1696,-71.7704 -14.037,-14.045 -34.979,-30.4232 -49.715,-38.881 -19.5476,-11.2195 -28.2473,-19.5362 -33.0198,-31.566 -1.996,-5.0312 -2.4156,-8.1715 -2.4,-17.9623 0.024,-14.8974 2.0388,-22.5246 13.672,-51.7499 11.1906,-28.1132 14.0068,-38.9451 13.468,-51.80058 -0.526,-12.55185 -3.4976,-19.26415 -16.1052,-36.37865 -20.2891,-27.542 -29.5099,-48.904 -35.0469,-81.1944 -2.5393,-14.80838 -2.5363,-53.56722 0.01,-74.42694 3.8248,-31.38564 9.6867,-60.89953 22.8162,-114.87641 18.934,-77.84017 25.3483,-118.29117 25.3483,-159.8562 0,-29.29215 -2.9969,-49.64074 -10.8501,-73.67188 -13.3106,-40.73062 -38.2643,-77.70276 -85.3037,-126.38819 -36.8232,-38.11182 -43.6578,-50.19461 -32.1998,-56.9256 3.3342,-1.95869 5.4503,-2.19973 18.3311,-2.08814 12.4671,0.10802 16.3463,0.59329 26.9663,3.37342 40.8964,10.70586 89.3556,38.04822 136.4495,76.98955 16.5678,13.69975 41.7454,39.49466 57.7796,59.19626 16.5608,20.3487 27.4285,32.16744 28.5539,31.05256 2.4381,-2.41543 -7.7123,-27.27067 -20.6601,-50.59029 -22.4937,-40.51235 -47.3274,-76.58898 -69.625,-101.14632 -19.6568,-21.64894 -23.683,-26.34928 -31.5612,-36.84577 -8.108,-10.80257 -10.9669,-16.15334 -9.9904,-18.69811 2.6132,-6.80979 46.8579,-9.18886 73.33,-3.943 63.1465,12.5135 131.18295,58.83689 176.51085,120.17941 3.9968,5.40882 13.7046,19.78478 21.573,31.94658 7.8684,12.1618 14.4839,22.29848 14.7012,22.52596 0.2173,0.22748 5.3179,-3.89837 11.3346,-9.16854 27.7067,-24.26865 43.5307,-36.03935 69.4917,-51.69144 20.177,-12.16486 27.9919,-17.47883 33.2276,-22.59403 3.7839,-3.69692 3.9858,-4.19026 2.5885,-6.32726 -3.5784,-5.47299 -18.7847,-10.78283 -41.8128,-14.60048 -20.2589,-3.35858 -36.4193,-4.41265 -67.8909,-4.42825 -15.7214,-0.008 -32.9528,-0.54729 -38.2922,-1.19888 -19.0993,-2.33081 -33.3246,-8.62747 -39.0476,-17.28394 -2.6804,-4.05422 -3.0198,-5.54577 -3.0198,-13.27114 0,-7.79995 0.4063,-9.54347 3.9136,-16.79346 17.5864,-36.35325 58.6729,-67.51943 112.1294,-85.05574 39.2298,-12.86927 73.3627,-17.83164 122.339,-17.78609 58.079,0.054 110.8572,9.04739 164.1502,27.97111 22.3813,7.94733 35.2239,13.55856 64.0948,28.00449 13.5745,6.79216 25.0649,12.34938 25.5343,12.34938 0.4694,0 8.1117,-5.31375 16.9828,-11.80834 29.6384,-21.69827 53.1183,-31.30913 88.5434,-36.2428 18.377,-2.55937 48.1525,-1.66526 69.8902,2.09869 21.7543,3.76681 33.4531,4.73014 32.837,2.70395 -1.2104,-3.98046 -32.4447,-22.4583 -96.8402,-57.28953 -46.1115,-24.941473 -62.2251,-35.764204 -74.7144,-50.181944 -17.245,-19.9078 -11.392,-41.50733 14.6986,-54.2431297 37.8826,-18.4918702 122.7648,-9.19126997 202.3289,22.1693097 60.0929,23.68593 103.1692,53.792 154.2813,107.827504 52.8605,55.88397 102.2732,126.98554 139.0541,200.08988 19.1355,38.03288 29.6644,63.97729 41.586,102.47191 11.6127,37.49749 20.7124,59.73609 33.6182,82.15863 17.1734,29.83724 32.8581,78.70552 38.5434,120.08856 5.8575,42.63644 4.6857,90.14077 -3.2462,131.5955 -3.8134,19.92998 -8.0385,35.40138 -17.0852,62.56179 -12.6402,37.9491 -13.0083,39.7437 -12.943,63.1011 0.051,18.3356 0.4299,22.1873 4.6646,47.4607 5.5853,33.3338 6.8247,53.61673 3.9546,64.71903 -2.3591,9.1254 -11.1652,27.588 -17.1771,36.013 -16.6953,23.3964 -48.3246,41.7131 -86.7594,50.2429 -46.7659,10.3788 -114.6755,5.4495 -163.6149,-11.876 -36.1413,-12.7948 -64.5717,-31.0939 -100.8044,-64.8826 -44.2881,-41.30043 -57.4759,-49.65983 -94.9709,-60.19923 -84.0295,-23.6199 -146.1413,-64.0641 -202.564,-131.90015 -4.0525,-4.87219 -14.5899,-18.02485 -23.4165,-29.22813 l -16.0485,-20.36961 -15.7821,16.05513 c -13.3051,13.53526 -16.4225,17.351 -19.8627,24.31161 -7.9724,16.13107 -7.5873,30.84573 1.4088,53.83361 10.0808,25.75974 30.4114,57.16874 81.7133,126.23967 29.9357,40.3043 51.2834,70.8272 74.0578,105.8877 29.8021,45.8795 51.1251,81.4338 60.1677,100.3251 5.126,10.7086 4.345,10.4537 15.5622,5.079 8.4675,-4.0571 18.7048,-10.6265 40.4494,-25.9567 29.8388,-21.0367 58.9679,-38.4091 79.5032,-47.4151 53.339,-23.3927 123.3079,-13.555 172.9013,24.31 33.5398,25.608 54.0442,60.8715 63.8681,109.8405 3.237,16.1352 3.5503,50.1382 0.5633,61.1275 -6.1685,22.6936 -21.0732,36.3412 -40.9888,37.5314 -9.7497,0.5826 -15.3928,-1.113 -22.9811,-6.9053 -2.6371,-2.0129 -5.7338,-3.6599 -6.8816,-3.6599 -2.7721,0 -5.1497,3.5586 -7.2069,10.7866 -3.6066,12.6716 -13.5063,26.9718 -29.1828,42.1546 -28.7493,27.844 -57.9618,36.368 -82.9291,24.1982 -20.4917,-9.9883 -34.2406,-31.8193 -39.9686,-63.4635 -2.4443,-13.5033 -2.4446,-40.1281 -8e-4,-59.5186 2.0109,-15.9559 2.0115,-25.4568 0,-26.1176 -3.4316,-1.1281 -15.6388,14.1687 -45.9632,57.5964 -36.1485,51.7684 -38.1126,56.9378 -39.6783,104.4314 -1.0642,32.2818 -2.932,49.6087 -8.175,75.8368 -17.5223,87.6544 -63.5687,174.7562 -124.4202,235.3542 -17.2471,17.1752 -27.3076,25.5372 -56.9176,47.3076 l -23.9497,17.6088 10.0643,20.126 c 14.9319,29.8604 18.9714,42.6102 18.9714,59.8801 0,27.2479 -15.3973,48.27 -48.5394,66.2715 -16.6965,9.0689 -31.3189,14.2617 -85.2134,30.2613 -40.2297,11.9429 -49.618,15.8481 -49.618,20.6394 0,3.2292 5.4388,6.9045 23.991,16.2121 49.6141,24.8915 105.1688,73.1488 134.5359,116.8638 10.5256,15.6682 20.7718,40.7586 23.8403,58.3788 2.0272,11.6414 0.7547,31.6951 -2.6236,41.3462 -7.7496,22.1389 -24.236,40.6389 -53.5414,60.0807 -26.482,17.5687 -49.725,29.6758 -62.3093,32.4563 -7.1199,1.5733 -38.3531,2.848 -47.1738,1.9254 z m 26.4553,-39.2556 c 18.373,-2.1882 29.0715,-5.549 36.2311,-11.3816 5.8519,-4.7672 8.4046,-10.194 7.5902,-16.1359 -2.1088,-15.3857 -16.0782,-45.8864 -36.3007,-79.2591 -6.6505,-10.9753 -13.9139,-23.5955 -16.1409,-28.0449 -13.9796,-27.9319 -6.9058,-28.5211 19.9818,-1.6645 23.4328,23.4056 41.2351,46.9042 53.969,71.2375 11.0392,21.0948 13.89,23.9511 20.9761,21.016 1.7802,-0.7374 4.5172,-2.8553 6.0822,-4.7065 12.8088,-15.1511 10.9043,-45.0888 -4.9488,-77.7927 -8.6057,-17.7529 -17.4925,-29.7994 -34.6144,-46.9213 -28.7868,-28.7867 -64.4972,-52.9049 -112.017,-75.654 -32.8098,-15.707 -52.1239,-29.0516 -53.6245,-37.0505 -2.8204,-15.0341 19.1597,-30.9311 59.8191,-43.2642 6.7594,-2.0503 20.9224,-5.8957 31.4733,-8.5452 55.1437,-13.848 96.4112,-29.569 110.9086,-42.2509 8.6112,-7.5329 11.2463,-12.9144 11.779,-24.0546 0.3399,-7.1106 -0.077,-11.2092 -1.7664,-17.3673 -2.8223,-10.2877 -17.5232,-45.2153 -19.0157,-45.1793 -0.6212,0.015 -11.8081,3.6933 -24.8598,8.174 -59.0654,20.2776 -86.2279,28.0546 -127.2809,36.442 -51.728,10.5684 -86.3916,15.1758 -126.7415,16.8461 -34.2509,1.4178 -43.0717,3.9474 -58.691,16.8309 -8.4264,6.9505 -16.9515,17.2497 -20.8841,25.2303 -2.5249,5.1239 -2.9246,7.2669 -2.9326,15.7218 -0.01,9.3359 0.2005,10.2123 4.5191,18.9277 5.3976,10.8927 15.5321,22.2048 35.8666,40.034 59.9484,52.5624 115.7338,112.258 133.7793,143.1562 10.685,18.2952 17.0897,48.5248 20.5199,96.8527 1.2486,17.5911 3.8743,30.145 7.8103,37.3417 3.1236,5.7112 9.1667,8.7733 21.3158,10.8006 10.9514,1.8275 44.1781,2.2115 57.1969,0.661 z m -514.66255,-41.3687 c 14.5003,-5.9288 24.3878,-16.8424 29.679,-32.7593 7.346,-22.098 10.7141,-48.7385 10.7416,-84.9632 0.042,-55.5641 -7.2758,-86.9037 -29.3432,-125.6629 -19.5031,-34.2553 -47.7039,-66.5195 -82.5843,-94.484 -4.8044,-3.8518 -16.9869,-12.6493 -27.0723,-19.5501 -34.381,-23.5245 -46.9532,-34.0487 -48.6233,-40.7027 -1.4831,-5.9093 5.586,-9.2954 23.8143,-11.4074 5.3393,-0.6187 45.1416,-1.5614 88.4494,-2.0951 79.4944,-0.9795 106.6156,-1.9629 135.6358,-4.9178 53.7145,-5.4694 85.21345,-16.8244 105.78735,-38.1353 18.6393,-19.307 21.885,-44.6598 9.7512,-76.1683 -14.2,-36.8737 -44.7642,-75.2001 -104.40685,-130.9224 -23.1406,-21.6195 -42.5857,-42.3331 -46.0983,-49.1054 l -2.1824,-4.2076 5.4324,0.6433 c 21.8558,2.5885 76.5182,38.5353 115.86465,76.1943 5.4829,5.2477 20.4025,21.0018 33.1545,35.0089 15.5918,17.1263 23.8939,25.4647 25.3483,25.4587 5.75,-0.024 67.2177,-11.1781 79.6806,-14.4597 87.2847,-22.9826 165.9356,-78.0528 193.8169,-135.7077 7.6069,-15.7301 6.9876,-17.8603 -14.1439,-48.6495 l -12.2525,-17.8523 -8.0732,8.8334 c -22.3612,24.4669 -38.7721,36.5372 -62.9219,46.2795 -14.9616,6.0357 -22.0098,6.2279 -32.1005,0.8755 -4.1933,-2.2241 -10.1307,-6.8465 -14.7726,-11.5006 -6.3105,-6.3271 -8.7723,-9.8636 -13.1699,-18.9193 -12.3546,-25.4408 -15.771,-51.1415 -12.5749,-94.5987 0.9762,-13.2744 1.6336,-24.2712 1.4608,-24.4375 -0.1728,-0.1663 -10.2648,8.6583 -22.4266,19.6101 -33.7567,30.3981 -51.3712,43.0409 -78.1074,56.0615 -38.5391,18.7685 -84.9031,27.1315 -127.45805,22.9905 -105.098,-10.227 -222.1941,-92.6056 -286.2162,-201.3566 -36.6782,-62.3032 -64.1573,-146.7042 -99.3022,-305.00233 -31.9612,-143.95859 -47.53864,-190.37715 -80.35949,-239.46065 -40.33485,-60.32066 -88.40913,-91.9765 -155.92088,-102.67042 -17.37959,-2.75294 -72.96027,-2.74624 -92.72558,0.0112 -36.05386,5.0298 -51.89878,10.40008 -106.44591,36.07742 l -25.0077,11.77205 34.71557,0.67141 c 19.72465,0.38148 40.62867,1.37868 48.40897,2.30928 76.33673,9.13064 138.47485,46.68186 179.36051,108.39089 22.9404,34.62411 40.76373,78.08911 49.10431,119.74862 5.73233,28.6317 6.94016,43.1877 6.94069,83.64455 5.3e-4,39.98998 -1.27393,58.77098 -7.06344,104.08988 -7.95416,62.2633 -9.53513,77.617 -13.05056,126.7416 -0.88578,12.3779 -1.38942,41.3114 -1.38942,79.8202 0,66.1028 0.27968,69.8377 6.74465,90.0675 3.25984,10.2004 20.2057,45.3 30.55802,63.2941 55.18029,95.9126 142.59936,171.0848 233.14956,200.4867 19.6781,6.3896 28.2379,6.105 32.0759,-1.0663 0.8294,-1.5497 2.6593,-3.1067 4.0665,-3.4599 3.4764,-0.8725 6.6976,2.3367 11.1496,11.1078 6.1192,12.0557 5.611,23.0355 -1.9147,41.3679 -11.8743,28.9259 -33.9768,46.9801 -103.2959,84.3768 -37.0167,19.9701 -48.8995,28.1279 -56.8385,39.021 -2.2488,3.0856 -3.0659,5.4512 -3.0659,8.8762 0,11.2756 11.5269,35.8957 35.2858,75.3664 36.5466,60.715 64.2093,116.1315 77.8043,155.8652 l 4.9823,14.5618 0.3814,18.7782 c 0.3988,19.6396 -0.5145,34.4133 -4.2402,68.5926 -2.9679,27.227 -2.524,49.7571 1.1689,59.3258 2.9585,7.6657 8.6173,13.5605 14.7941,15.4111 2.4012,0.7194 7.9938,1.308 12.4279,1.308 11.1562,0 18.628,-3.7794 28.5791,-14.4557 12.9521,-13.8961 20.9602,-30.4732 32.1872,-66.6289 6.8873,-22.1797 13.9069,-39.6321 16.6135,-41.3049 2.0221,-1.2497 6.2789,3.4909 8.0963,9.0164 5.5413,16.8479 5.1002,40.9808 -1.5301,83.7102 -5.203,33.5314 -0.9468,45.5223 18.6501,52.5418 7.9864,2.8607 21.4902,2.1176 30.8168,-1.6957 z m -248.0455,-767.3188 c -9.4538,-10.7672 -19.2858,-43.4561 -19.6684,-65.3918 -0.084,-4.833 0.2696,-14.9256 0.7864,-22.4282 l 0.9395,-13.6411 -2.8084,-2.8084 c -2.1779,-2.1779 -3.9695,-2.8422 -7.981,-2.9591 -21.4378,-0.6249 -28.64515,4.8721 -47.57552,36.2856 -7.23429,12.0047 -11.42436,16.7165 -13.24578,14.8951 -3.28747,-3.2875 -4.10956,-19.8797 -1.48435,-29.9585 2.48463,-9.5392 6.66026,-16.4673 15.04719,-24.9662 7.97766,-8.0841 17.09353,-13.5596 26.98476,-16.2084 7.7996,-2.0887 20.4763,-1.8062 26.9663,0.6009 2.9663,1.1002 9.0337,3.3724 13.4831,5.0493 8.0209,3.023 8.3061,3.0495 33.4382,3.1017 29.6988,0.062 31.4987,0.4172 53.8451,10.6313 l 14.5544,6.6525 -25.8402,0.6558 c -14.2121,0.3607 -28.9493,1.2452 -32.7494,1.9655 -15.5551,2.9487 -23.9842,8.375 -28.4198,18.2955 -3.1033,6.9408 -3.7123,27.724 -1.4377,49.0654 0.9408,8.8273 1.7105,20.3553 1.7105,25.618 0,11.1046 -0.9539,11.9129 -6.5449,5.5451 z m 483.30895,362.1512 c 8.009,-0.5799 32.764,-2.0515 55.0112,-3.2704 57.9295,-3.1738 73.1773,-5.4803 76.432,-11.5618 1.6992,-3.1749 -0.9529,-7.2317 -11.1156,-17.0036 -9.4518,-9.0882 -15.8399,-18.0845 -22.9779,-32.3596 -10.0132,-20.0246 -19.5578,-52.3146 -15.4639,-52.3146 1.9463,0 9.9267,10.2313 23.4214,30.0275 26.4979,38.8711 39.9783,54.9073 50.7947,60.4251 6.371,3.25 15.8701,5.5482 22.9112,5.5431 26.249,-0.019 111.1516,-24.4033 161.3022,-46.3263 12.0072,-5.2489 23.2292,-10.2812 24.9377,-11.1829 l 3.1065,-1.6394 -2.6966,-1.0447 c -16.4142,-6.3585 -58.9112,-24.188 -67.3712,-28.2653 -27.6,-13.3021 -44.1067,-26.3466 -59.4115,-46.9502 -4.851,-6.5304 -22.1212,-34.4226 -26.355,-42.5644 l -1.4023,-2.6966 2.5734,2.2601 c 1.4153,1.2431 10.0969,8.9678 19.2924,17.1661 31.3177,27.9212 51.1073,42.2136 73.8877,53.3629 26.3207,12.8821 44.8667,17.5308 70.1123,17.5742 27.8449,0.048 34.3916,-2.8597 56.6234,-25.1475 23.212,-23.2705 42.4882,-47.1649 61.8145,-76.624 20.0523,-30.5655 35.7109,-61.5835 40.9267,-81.0712 l 2.3175,-8.6588 -2.4886,-2.0152 c -3.0784,-2.4927 -7.1064,-2.5368 -25.3972,-0.2783 -18.6474,2.3026 -48.7503,1.5376 -62.0659,-1.5772 -20.0404,-4.6879 -34.8684,-11.1492 -56.151,-24.4675 -24.4618,-15.3079 -37.1803,-18.1945 -52.3111,-11.8725 -10.9501,4.5753 -22.0653,16.2319 -38.5037,40.3791 -15.2625,22.4198 -25.441,34.7515 -43.2759,52.4305 -36.3707,36.0528 -77.8655,61.5424 -128.3178,78.8237 -19.5902,6.7101 -39.7816,11.4279 -73.5304,17.1806 -16.018,2.7304 -31.7933,5.5686 -35.0562,6.3071 -5.8523,1.3246 -5.9298,1.3932 -5.7262,5.068 0.1135,2.049 1.939,8.8204 4.0567,15.0477 2.1176,6.2273 4.5731,14.8218 5.4565,19.0988 4.4187,21.3924 -0.8537,47.8094 -13.9112,69.7012 -3.9645,6.6468 -11.7624,16.6845 -26.3328,33.8965 -5.6158,6.6339 -7.0573,6.1884 14.884,4.5998 z M 661.43345,1732.7608 c 20.0627,-17.6643 33.5702,-31.4008 36.1057,-36.718 3.5532,-7.451 -0.4769,-11.4268 -11.583,-11.4268 -9.1113,0 -29.9452,-6.284 -57.9617,-17.4825 -29.3605,-11.7357 -30.9657,-12.6699 -51.396,-29.9083 -45.18065,-38.1222 -102.48269,-97.0924 -122.43806,-126.0025 -2.55938,-3.7078 -5.04233,-6.7415 -5.51768,-6.7415 -1.97856,0 10.68924,31.9708 21.58341,54.4719 19.23499,39.7284 40.88505,71.0746 72.75653,105.341 18.7679,20.1782 25.5199,25.7572 31.0806,25.6808 3.317,-0.045 4.7092,-1.259 12.0263,-10.4825 3.4122,-4.3011 6.8506,-7.8202 7.6411,-7.8202 1.8477,0 2.7788,4.7772 2.8119,14.4269 0.047,13.817 3.8544,24.0195 12.766,34.212 4.6676,5.3385 31.9499,27.9453 33.7249,27.9453 0.4403,0 8.7203,-6.973 18.4,-15.4956 z M 1599.0837,1543.869 c 10.067,-2.7037 14.6401,-5.7526 19.5053,-13.004 20.37,-30.3613 20.075,-114.2263 -0.6891,-195.8761 -5.9757,-23.498 -20.5794,-67.471 -26.3521,-79.3485 -6.7851,-13.9606 -12.5005,-17.9393 -22.2127,-15.4629 -8.9692,2.287 -37.5507,14.3864 -36.8267,15.5899 0.3849,0.6398 6.5073,9.9003 13.6053,20.5789 7.098,10.6787 15.4524,24.7551 18.5651,31.2809 26.0627,54.6394 24.5915,114.2546 -3.5561,144.1014 -11.5763,12.2751 -27.5329,18.4585 -41.8724,16.2261 -8.6479,-1.3464 -14.1945,-4.25 -20.8699,-10.9255 -7.0195,-7.0195 -9.6301,-7.1112 -15.9082,-0.559 -10.0615,10.5008 -32.1728,46.622 -31.4738,51.4158 1.125,7.7145 40.8615,24.8589 75.7564,32.6852 26.6551,5.9782 57.1684,7.3695 72.3289,3.2978 z m -342.2035,-44.7788 c 7.9471,-3.0028 18.0349,-10.9098 30.5882,-23.9756 17.8425,-18.5709 32.4561,-38.9173 53.7953,-74.8983 16.4781,-27.7847 27.8742,-41.3531 34.7325,-41.3531 6.0228,0 6.0607,6.9406 0.2951,54.0662 -3.6863,30.1297 -4.3372,38.3761 -3.9911,50.563 0.3332,11.7358 0.8411,15.5084 2.6172,19.4396 2.707,5.9917 12.0533,15.7946 16.0042,16.7862 9.9621,2.5004 34.0599,-14.8712 46.2937,-33.372 7.951,-12.024 13.7852,-24.0366 18.953,-39.0237 6.0197,-17.458 8.4993,-30.4045 9.7908,-51.1201 1.5841,-25.4108 3.5485,-32.4403 9.0651,-32.4403 5.8169,0 13.4754,13.7539 23.7245,42.6067 11.227,31.6057 19.7596,45.8427 27.4747,45.8427 4.0701,0 9.0564,-5.1626 13.0229,-13.4831 16.8067,-35.2564 -1.4138,-101.0963 -38.2391,-138.1766 -16.7946,-16.9109 -30.2797,-23.1228 -51.8169,-23.8692 -17.0212,-0.5899 -28.6281,2.2707 -48.6452,11.9887 -22.3217,10.8369 -40.6375,23.1788 -80.1552,54.0118 -40.8387,31.8637 -51.5716,37.7732 -53.1937,29.288 -1.9813,-10.3647 18.8334,-39.0065 50.9118,-70.0561 15.7863,-15.28 28.5665,-25.7987 47.8372,-39.3721 7.8105,-5.5013 12.548,-9.5231 12.2211,-10.3749 -0.2936,-0.765 -11.4102,-18.3199 -24.7037,-39.0108 -57.187,-89.01 -73.6584,-116.7362 -94.1187,-158.4288 -13.3257,-27.1543 -20.8775,-45.32448 -29.1399,-70.11223 -14.5111,-43.5351 -19.915,-75.0526 -22.1005,-128.89892 -1.8174,-44.77855 -3.5446,-50.72119 -16.9709,-58.38987 -11.7643,-6.71942 -20.9985,-18.2009 -31.0749,-38.63743 -7.8297,-15.88 -13.5703,-32.12548 -18.695,-52.90528 -5.2148,-21.14498 -7.2064,-34.29057 -8.8246,-58.24719 -4.2066,-62.27874 7.7866,-99.64946 46.4068,-144.6024 4.3025,-5.008 21.102,-22.69648 37.3323,-39.30771 31.4461,-32.18414 39.8294,-41.83937 44.3962,-51.13155 3.7242,-7.57778 3.6513,-13.19738 -0.3285,-25.31008 -3.299,-10.04103 -6.4788,-14.70444 -10.0264,-14.70444 -3.0699,0 -23.6808,10.57312 -36.5644,18.75709 -32.0042,20.32985 -74.3511,56.44802 -94.912,80.95158 -29.9519,35.69541 -48.1066,82.34236 -55.4401,142.44863 -2.2329,18.30132 -1.8849,77.7011 0.572,97.61798 4.0185,32.5765 9.998,63.86378 17.0072,88.98876 18.7969,67.37873 81.2348,235.14116 99.2815,266.75616 5.2651,9.2238 13.9613,13.7342 20.2299,10.4926 6.8353,-3.5346 9.6464,-11.2072 10.7732,-29.4031 0.4124,-6.6601 1.1181,-12.4776 1.5682,-12.9277 0.9983,-0.9983 4.027,2.8844 7.3296,9.3965 4.856,9.5748 3.5823,27.1507 -2.8936,39.9302 -3.0838,6.0855 -9.3617,11.8451 -12.911,11.8451 -1.4295,0 -3.9141,1.1312 -5.5215,2.5139 -6.4932,5.5852 -3.7465,24.5531 4.9933,34.4819 6.1628,7.0014 16.5353,12.0234 23.2661,11.2647 7.7773,-0.8766 13.1668,-5.3302 17.9828,-14.86 3.4244,-6.7761 4.5001,-10.7019 6.7878,-24.7713 3.9956,-24.5726 4.3291,-25.054 8.4067,-12.1348 4.2218,13.3762 5.2965,20.7768 4.7663,32.8219 -0.5995,13.6207 -3.2428,21.1791 -10.0572,28.7583 -6.4063,7.1254 -11.3326,9.0102 -25.6967,9.8313 -10.5376,0.6024 -11.9292,0.9238 -13.7528,3.1758 -2.6475,3.2695 -2.6314,9.8422 0.071,28.9484 5.4223,38.3398 5.9973,61.5658 3.4119,137.8126 -0.9552,28.1716 -1.246,56.3625 -0.8011,77.6629 1.5739,75.3579 5.0407,92.5139 21.0636,104.239 6.3328,4.6342 9.6534,5.0135 17.6012,2.0105 z m 590.3501,-89.939 c 9.3678,-4.2887 18.7599,-11.2732 28.8661,-21.4664 17.1356,-17.2831 20.195,-23.927 20.195,-43.8567 0,-22.1366 -4.1659,-49.4168 -10.5094,-68.8204 -4.2325,-12.9467 -4.0681,-15.0237 1.0869,-13.7298 4.112,1.032 15.7005,11.0394 24.5384,21.1903 4.2998,4.9386 16.3337,20.3737 26.742,34.3003 10.4084,13.9265 19.0602,24.8479 19.2263,24.2696 0.8717,-3.0347 3.634,-36.6215 3.6285,-44.1192 -0.014,-18.7015 -4.7511,-40.2803 -12.3866,-56.42 -12.3391,-26.0821 -36.671,-51.3842 -60.5543,-62.9687 -15.2856,-7.4143 -26.8602,-9.7892 -50.5583,-10.3738 -41.9584,-1.0351 -65.1971,5.0707 -99.236,26.0734 -13.7467,8.4821 -91.8627,61.7031 -92.8062,63.2296 -0.6264,1.0136 20.5631,70.0431 26.6332,86.7633 1.7229,4.7461 3.3674,9.2907 3.6544,10.0991 0.4266,1.202 0.8255,1.2176 2.1895,0.085 2.6438,-2.1941 15.1807,-19.3091 29.5838,-40.3868 7.2971,-10.6787 16.2284,-23.0562 19.8474,-27.5056 19.429,-23.8875 36.3846,-34.8209 48.6566,-31.3749 7.8955,2.2171 14.0378,9.8108 18.2391,22.5492 4.6372,14.0597 6.0776,25.8115 7.1346,58.2091 1.2751,39.0782 3.492,57.2014 8.0831,66.0796 1.8341,3.5467 7.9485,7.9899 14.2166,10.3307 5.6701,2.1174 16.3259,1.1404 23.5293,-2.1574 z m -764.2423,-15.2898 c 11.4655,-2.0053 25.3051,-6.0879 31.8203,-9.3868 22.5681,-11.4274 41.8127,-35.3861 50.4633,-62.8249 3.992,-12.6622 4.5727,-17.9182 2.4601,-22.2669 -2.498,-5.1424 -5.2252,-6.785 -21.3563,-12.8634 -7.8698,-2.9655 -18.1919,-7.6276 -22.9379,-10.3602 -40.5096,-23.3237 -84.1036,-74.8126 -114.1513,-134.8239 -28.09505,-56.1115 -37.61075,-96.7293 -40.69745,-173.71723 -1.5961,-39.8095 0.6436,-114.98434 5.5206,-185.29408 4.526,-65.25065 2.8267,-119.81564 -4.9884,-160.17977 -6.9498,-35.89492 -21.65,-76.83395 -40.9498,-114.0419 -24.4427,-47.12299 -70.1598,-102.81175 -115.3853,-140.5527 -12.1472,-10.13692 -42.7392,-31.24978 -52.3004,-36.09483 -13.9995,-7.09407 -11.5401,-1.68984 11.7777,25.88044 33.5163,39.62861 51.6986,79.10606 59.6161,129.4382 3.1831,20.23557 3.4613,70.11783 0.5263,94.38202 -4.1731,34.49918 -9.1492,61.00138 -20.1517,107.32584 -20.3299,85.59615 -27.0759,137.01242 -23.8435,181.72862 2.0708,28.64616 4.4015,34.78336 24.4342,64.33996 31.7774,46.8852 33.8928,61.37295 16.1125,110.35273 -11.8454,32.6311 -14.2549,48.4283 -9.1817,60.1988 3.3896,7.8641 13.7703,17.2163 30.774,27.7246 22.6036,13.9691 34.3717,24.4469 46.0729,41.0214 9.9423,14.0829 16.9821,30.806 21.1518,50.2455 2.915,13.5903 3.5359,22.3771 3.8831,54.9501 0.2228,20.9076 0.7415,29.7049 2.1622,36.6741 5.8752,28.821 20.1071,47.1358 49.6856,63.9392 14.4074,8.1849 31.95725,13.3407 53.93255,15.8444 12.2865,1.3999 43.4278,0.4809 55.5505,-1.6393 z m -222.56175,-318.324 c -1.5362,-1.5362 -0.5983,-7.7287 1.9419,-12.822 3.8896,-7.7991 14.8791,-21.0146 28.2275,-33.9454 16.6044,-16.0848 31.3643,-26.7285 43.4145,-31.30718 7.3142,-2.7792 7.2945,-1.1343 -0.094,7.81628 -8.9049,10.7882 -69.174,70.9892 -71.0632,70.983 -0.9393,0 -2.0315,-0.3292 -2.427,-0.7247 z m -30.9213,-287.18397 c 0,-1.77317 8.8362,-12.3525 17.0068,-20.36177 15.2042,-14.90405 31.695,-24.23667 53.1055,-30.05412 8.1308,-2.20918 33.0892,-2.57948 38.0225,-0.56412 6.3477,2.59316 3.6966,4.09358 -25.0786,14.19344 -34.5836,12.13852 -52.9209,20.1852 -67.016,29.40769 -12.8109,8.38219 -16.0402,9.86776 -16.0402,7.37888 z m 348.51355,469.99127 c 1.8485,-3.454 0.4936,-18.6809 -3.3788,-37.9708 -10.9153,-54.3748 -37.4668,-140.0981 -71.6998,-231.48818 -36.1903,-96.61525 -56.4041,-155.66228 -69.553,-203.17283 -7.4325,-26.85553 -10.6497,-35.74845 -12.9328,-35.74845 -2.6374,0 -5.5408,9.98125 -7.0596,24.26966 -3.2802,30.85837 -4.2941,66.51373 -4.2941,151.01127 0,90.61383 0.4996,101.30453 5.9484,127.28073 13.7288,65.4494 61.2429,141.0936 114.5495,182.3668 28.8405,22.33 44.8665,30.092 48.4202,23.4518 z m 362.1945,-17.6308 c 2.9832,-1.6237 11.543,-7.7957 19.0216,-13.7156 10.1583,-8.041 13.4277,-11.2097 12.926,-12.5279 -1.3805,-3.6274 -40.2277,-70.4648 -52.0702,-89.5879 -33.294,-53.7627 -48.8466,-72.1205 -58.9515,-69.5843 -1.5504,0.3891 -9.4844,5.055 -17.631,10.3685 -23.482,15.3159 -43.3986,24.3037 -62.9872,28.4244 -4.3531,0.9157 -15.4383,2.1408 -24.6338,2.7225 -17.817,1.1269 -29.853,2.8141 -30.7803,4.3146 -0.6223,1.0069 15.1748,27.1678 50.441,83.5327 l 22.946,36.6742 29.663,0.6608 c 40.2434,0.8966 53.5933,3.4213 74.903,14.1657 5.9674,3.0088 12.7913,6.1183 15.1644,6.9101 6.3889,2.1317 15.5439,1.15 21.989,-2.3578 z m -171.3823,-160.0617 c 21.1882,-4.775 40.7178,-13.7338 71.4793,-32.7895 l 18.086,-11.2037 -9.5035,-12.2911 c -46.6936,-60.39053 -62.2317,-83.77443 -80.5584,-121.23493 -9.4958,-19.4098 -12.7191,-24.4935 -17.5488,-27.67824 -3.9873,-2.62923 -6.868,-2.48858 -16.4714,0.80424 -18.3115,6.2785 -42.4777,9.1545 -58.7291,6.9893 -8.5609,-1.1407 -23.0793,-5.725 -27.5631,-8.70345 -3.2379,-2.15088 1.2265,-2.90124 21.6174,-3.63331 23.6896,-0.85051 34.8736,-2.05774 46.877,-5.06001 23.2944,-5.82636 37.3092,-18.85554 41.4028,-38.4911 1.6748,-8.03342 6.5216,-18.1764 14.464,-30.26916 17.7848,-27.07816 38.2769,-46.58748 48.9345,-46.58748 13.05,0 2.3013,-16.25777 -16.8912,-25.54846 -19.1155,-9.25344 -37.4399,-13.283 -60.4045,-13.283 -16.9619,0 -29.6809,1.90308 -43.3694,6.48916 -25.9028,8.67821 -47.2144,24.51475 -61.3203,45.56674 -10.8238,16.15361 -12.9895,27.97923 -10.8133,59.04523 5.4516,77.82174 23.9185,147.84034 55.1974,209.28497 18.4703,36.2833 28.542,47.7773 44.3599,50.6245 8.1801,1.4724 30.0448,0.383 40.7547,-2.0307 z m 658.8397,-14.119 c 27.1376,-2.8587 43.9733,-10.0736 64.0884,-27.4648 16.7917,-14.5179 20.7149,-25.3737 9.1698,-25.3737 -6.9832,0 -18.2946,-13.81968 -25.2251,-30.81873 -6.7011,-16.4367 -9.1908,-28.2232 -9.7825,-46.3121 -0.7615,-23.2786 1.4302,-27.339 13.1623,-24.3848 6.7818,1.7076 13.0675,1.5022 15.062,-0.4923 1.9021,-1.9022 2.3731,-3.7215 3.2512,-12.5594 1.004,-10.1047 7.5077,-33.40431 19.6025,-70.22525 17.3378,-52.78263 22.9539,-77.17861 25.2384,-109.63368 3.5566,-50.52709 -10.4542,-111.70248 -38.2983,-167.22213 -23.1816,-46.22264 -53.6834,-87.788 -91.8504,-125.16616 -33.8263,-33.12706 -68.6233,-57.54194 -106.1296,-74.46437 -66.0602,-29.80568 -160.2361,-54.88055 -236.7239,-63.02913 -33.7849,-3.59925 -65.2584,-6.57368 -65.2584,-6.1673 0,0.23234 8.365,10.93605 18.5889,23.78602 28.3301,35.60697 42.4651,56.14569 39.7816,57.80422 -2.2038,1.36203 -22.8,-12.89279 -70.8518,-49.03722 -35.8231,-26.94601 -56.4355,-41.5873 -77.5861,-55.11066 -67.9417,-43.44067 -123.8199,-65.11308 -190.382,-73.83986 -18.3287,-2.40302 -74.5291,-3.31368 -96.9696,-1.57128 -57.3954,4.4565 -101.6991,17.75243 -136.075,40.83738 -21.6962,14.56986 -31.2881,24.37184 -28.4385,29.06117 3.6613,6.02487 14.4504,7.50538 64.6291,8.86857 53.6642,1.45788 64.9835,3.74167 96.5765,19.48532 63.0267,31.40793 90.4808,85.42429 67.1302,132.07941 -4.7616,9.51398 -18.3971,25.0613 -51.5385,58.76502 -17.8042,18.10621 -35.3735,36.61189 -39.0428,41.12375 -19.1017,23.48727 -30.3655,46.02683 -34.3126,68.66114 -2.0913,11.99224 -2.0468,36.33915 0.093,50.74806 3.4477,23.21915 17.603,72.47541 25.0134,87.03911 9.3064,18.29013 17.0642,17.28282 44.8867,-5.82829 13.8945,-11.54168 23.5515,-17.98803 37.2302,-24.85232 32.4232,-16.27072 67.6665,-20.22639 100.8013,-11.31384 35.512,9.55199 36.0527,9.65731 40.9223,7.97033 4.234,-1.46681 4.9313,-2.32514 10.4781,-12.89723 7.5068,-14.30769 9.1047,-16.63292 12.491,-18.17579 7.2533,-3.30485 11.329,5.45813 16.7313,35.97354 8.1473,46.02075 25.1685,78.05797 64.1567,120.75565 20.0278,21.93335 47.7824,47.18473 70.0464,63.72882 35.0284,26.0292 63.1576,38.6168 112.9984,50.5658 33.0375,7.9206 48.8233,17.4471 83.6538,50.4845 28.0946,26.64813 59.8685,50.84813 84.4858,64.34703 14.9196,8.1812 37.04,14.8808 64.1278,19.4226 11.2474,1.8858 17.7476,2.6624 40.3522,4.8212 8.8198,0.8422 44.4815,0.5845 53.7161,-0.3883 z m -66.0156,-41.6235 c -7.7237,-7.9529 -18.2794,-34.41798 -21.801,-54.65913 -2.3607,-13.5689 -1.582,-35.4026 1.5778,-44.238 3.8056,-10.6414 9.0112,-15.8684 15.8036,-15.8684 12.4606,0 28.5909,25.9278 33.4729,53.8043 2.1016,11.9998 2.0648,33.39975 -0.072,41.69933 -2.25,8.741 -6.4908,15.2392 -12.755,19.5452 -7.1382,4.9066 -11.2561,4.8347 -16.2267,-0.2833 z m 12.0495,-15.3523 c 5.5453,-3.5198 4.3486,-38.07963 -1.9857,-57.34573 -3.0866,-9.3881 -4.7054,-12.3309 -9.8583,-17.9211 -7.2746,-7.8921 -7.7571,-7.1568 -6.982,10.6402 1.5056,34.5697 9.2318,64.44793 16.9187,65.42623 0.2966,0.038 1.1549,-0.3221 1.9073,-0.7996 z M 1768.8965,852.37549 c -47.8783,-8.668 -83.2049,-49.81163 -94.4151,-109.96161 -3.065,-16.44591 -2.8428,-59.7003 0.3994,-77.7651 7.9007,-44.02033 25.7198,-82.13676 50.6406,-108.3243 11.2862,-11.8598 19.5608,-18.1869 31.8743,-24.37246 24.2822,-12.19777 34.0685,-12.82256 57.7248,-3.68531 12.1276,4.68429 20.924,10.26167 30.8703,19.5735 25.2351,23.62526 41.5922,60.4797 48.2981,108.82086 0.8854,6.38264 1.4178,21.02725 1.4117,38.83146 -0.01,25.08315 -0.3153,30.3018 -2.5043,42.60674 -6.4132,36.05036 -19.371,61.22334 -44.571,86.58788 -17.9433,18.06036 -28.3092,24.97094 -41.7206,27.81364 -8.9284,1.89245 -27.1956,1.83223 -38.0082,-0.1253 z m 12.147,-84.29944 c 5.9557,-5.57156 6.0205,-17.09643 0.1267,-22.55858 -4.1227,-3.82082 -11.0065,-3.56426 -15.6483,0.58321 -3.0575,2.73186 -3.5227,3.83571 -3.5227,8.35955 0,6.81542 3.3501,13.27495 8.1527,15.71961 4.2539,2.16544 6.8677,1.66058 10.8916,-2.10379 z m 75.0848,-44.51702 c 11.1851,-5.07684 21.2213,-18.53723 24.0766,-32.29118 2.0238,-9.74877 0.6485,-34.18359 -2.6157,-46.47195 -10.8352,-40.78997 -35.5902,-72.32893 -56.7061,-72.24597 -7.9014,0.031 -13.2952,2.62969 -20.3734,9.81559 -10.6052,10.76654 -13.8885,21.9137 -12.0714,40.98387 2.1928,23.01434 9.78,50.04972 19.6408,69.98584 4.4949,9.08755 7.1035,12.82672 13.1993,18.92035 12.7147,12.71015 23.8171,16.31117 34.8499,11.30345 z m -113.0157,-23.74668 c 8.6666,-4.42138 21.4903,-24.39469 24.9348,-38.83667 0.7782,-3.26292 1.3955,-9.81573 1.3717,-14.5618 -0.1483,-29.63779 -19.7522,-44.49737 -40.5394,-30.7285 -13.8138,9.14991 -21.1536,32.6119 -16.6022,53.06969 2.6927,12.10324 12.76,27.70283 20.2652,31.40144 4.6038,2.26884 5.5056,2.23948 10.5699,-0.34416 z m -439.001,-128.36476 c 0,-2.77187 12.8672,-11.95825 25.743,-18.37887 23.5133,-11.72511 68.0161,-22.7754 98.2664,-24.40005 12.0446,-0.64688 29.1269,0.84895 32.3346,2.83142 5.2952,3.27262 -8.8757,7.85975 -76.7448,24.84242 -57.6427,14.42372 -79.5992,18.59028 -79.5992,15.10508 z m 214.5696,-164.93572 c -16.5168,-6.68194 -182.8828,-86.1752 -181.9658,-86.9472 0.9146,-0.77007 34.3943,4.26031 43.9805,6.60815 42.5716,10.42662 109.9699,45.19877 141.2237,72.86018 14.904,13.19089 14.3043,14.57581 -3.2384,7.47887 z m 580.5369,585.87945 c 1.5044,-3.8291 0.4521,-21.32065 -1.8008,-29.93245 -2.6039,-9.9537 -11.5687,-39.4451 -11.8917,-39.1202 -0.1578,0.1588 -1.0374,7.8307 -1.9547,17.0488 -2.5489,25.6149 -0.2875,42.1612 6.9648,50.95945 3.9649,4.8101 7.0567,5.1821 8.6824,1.0444 z M 1011.0078,606.26337 c 0.9178,-3.42733 2.478,-11.08544 3.4671,-17.01803 5.2678,-31.59519 9.3873,-49.14065 17.3529,-73.90888 6.9897,-21.73365 11.4046,-32.39686 25.1699,-60.79317 l 11.9637,-24.67959 -15.2741,-22.24176 c -18.3215,-26.67925 -25.0446,-35.72958 -38.1573,-51.36536 -15.97165,-19.04492 -33.52045,-35.32846 -50.11495,-46.50185 -25.5717,-17.21782 -57.0769,-35.20441 -73.5475,-41.98881 -9.7109,-4.00002 -12.7446,-4.54292 -12.7446,-2.28067 0,2.09188 9.7562,17.32984 23.8855,37.30592 23.2971,32.93772 36.4627,56.35398 47.6479,84.74631 12.7504,32.36535 18.8968,56.25437 35.27,137.08367 15.31785,75.61938 19.11715,90.5285 22.53175,88.41816 0.4845,-0.29944 1.6319,-3.34861 2.5497,-6.77594 z m 1038.4521,-203.4559 c 0,-4.50514 -15.253,-35.63311 -31.0192,-63.30317 -33.2898,-58.42458 -68.246,-111.02167 -95.9833,-144.42188 C 1871.6405,133.89047 1812.268,89.166737 1747.919,63.607376 c -42.5238,-16.89044 -101.9263,-28.77185 -134.2173,-26.84551 -9.289,0.55414 -37.7816,6.8151 -37.763,8.29804 0,0.29975 1.3385,1.31454 2.9662,2.25509 1.6278,0.94055 12.9101,7.53388 25.0719,14.65184 12.1618,7.11797 38.373,22.04427 58.2472,33.169561 39.3828,22.045983 60.3584,35.334863 77.3034,48.974833 22.5828,18.17804 36.8194,37.23787 36.9863,49.51679 0.076,5.57113 -3.0486,12.01647 -6.8279,14.08574 -4.4087,2.41383 -28.855,2.32234 -55.6866,-0.20842 -75.2091,-7.09376 -84.5867,-7.67359 -98.6966,-6.10251 -13.6953,1.52492 -20.7751,3.47562 -35.7979,9.86341 -21.9335,9.32632 -35.414,18.60802 -34.6629,23.86645 1.0379,7.26658 24.0179,12.03702 71.5395,14.85095 40.257,2.38376 54.3355,3.41314 67.955,4.96865 82.7187,9.44748 170.5727,32.89057 231.9346,61.88971 27.8714,13.1718 70.5577,40.29695 97.5935,62.01616 21.7054,17.43703 35.5955,26.78253 35.5955,23.94931 z"
       id="path1" />
  </g>
</svg>
